<svg version="1.2" xmlns="http://www.w3.org/2000/svg" viewBox="0 0 462 244" width="462" height="244">
	<title>3520300-ai</title>
	<defs>
		<clipPath clipPathUnits="userSpaceOnUse" id="cp1">
			<path d="m226.32 122.24c0 39.09-31.68 70.77-70.77 70.77-39.08 0-70.77-31.68-70.77-70.77 0-39.08 31.69-70.77 70.77-70.77 39.09 0 70.77 31.69 70.77 70.77z"/>
		</clipPath>
	</defs>
	<style>
		tspan { white-space:pre } 
		.s0 { fill: #c1272d } 
		.s1 { fill: #cccccc } 
		.s2 { fill: #f2f2f2 } 
		.s3 { fill: none;stroke: #333333;stroke-width: 4 } 
		.s4 { fill: none;stroke: #333333;stroke-width: 2 } 
		.t5 { font-size: 41px;fill: #333333;font-weight: 900;font-style: italic;font-family: "Roboto-BlackItalic", "Roboto" } 
		.t6 { font-size: 11px;fill: #ffffff;font-weight: 300;font-style: italic;font-family: "Roboto-LightItalic", "Roboto" } 
		.t7 { font-size: 58px;fill: #ffffff;font-weight: 900;font-family: "Roboto-Black", "Roboto" } 
		.t8 { font-size: 42px;fill: #333333;font-weight: 900;font-family: "Roboto-Black", "Roboto" } 
		.s9 { fill: #333333 } 
		.t10 { font-size: 26px;fill: #ffffff;font-weight: 500;font-family: "Roboto-Medium", "Roboto" } 
		.s11 { fill: #999999 } 
		.t12 { font-size: 32px;fill: #333333;font-weight: 700;font-style: italic;font-family: "Roboto-BoldItalic", "Roboto" } 
		.t13 { font-size: 32px;fill: #333333;font-weight: 900;font-style: italic;font-family: "Roboto-BlackItalic", "Roboto" } 
		.t14 { font-size: 25px;fill: #ffffff;font-weight: 900;font-style: italic;font-family: "Roboto-BlackItalic", "Roboto" } 
		.t15 { font-size: 25px;fill: #ffffff;font-weight: 500;font-style: italic;font-family: "Roboto-MediumItalic", "Roboto" } 
		.t16 { font-size: 34px;fill: #cccccc;font-weight: 900;font-family: "Roboto-Black", "Roboto" } 
		.t17 { font-size: 34px;fill: #999999;font-weight: 900;font-family: "Roboto-Black", "Roboto" } 
		.t18 { font-size: 34px;fill: #666666;font-weight: 900;font-family: "Roboto-Black", "Roboto" } 
		.t19 { font-size: 34px;fill: #333333;font-weight: 900;font-family: "Roboto-Black", "Roboto" } 
	</style>
	<g id="OBJECTS">
		<g id="&lt;Group&gt;">
			<path id="&lt;Path&gt;" class="s0" d="m-47-80.4h-228.4l14.8-34.5h228.4z"/>
			<g id="&lt;Group&gt;">
				<path id="&lt;Path&gt;" class="s1" d="m-277.9-179.9c0 26.2-21.3 47.5-47.5 47.5-26.3 0-47.5-21.3-47.5-47.5 0-26.3 21.2-47.5 47.5-47.5 26.2 0 47.5 21.2 47.5 47.5z"/>
				<path id="&lt;Path&gt;" class="s2" d="m-290.5-179.9c0 19.3-15.7 34.9-34.9 34.9-19.3 0-34.9-15.6-34.9-34.9 0-19.3 15.6-34.9 34.9-34.9 19.2 0 34.9 15.6 34.9 34.9z"/>
				<path id="&lt;Path&gt;" class="s1" d="m-304.9-179.9c0 11.3-9.2 20.5-20.5 20.5-11.3 0-20.5-9.2-20.5-20.5 0-11.3 9.2-20.5 20.5-20.5 11.3 0 20.5 9.2 20.5 20.5z"/>
				<path id="&lt;Path&gt;" class="s3" d="m-265.6-179.9c0 33-26.8 59.8-59.8 59.8-33.1 0-59.9-26.8-59.9-59.8 0-33.1 26.8-59.9 59.9-59.9 33 0 59.8 26.8 59.8 59.9z"/>
				<path id="&lt;Path&gt;" class="s4" d="m-312.3-238.3c0 0 25.2 48.4-24 117.2"/>
				<path id="&lt;Path&gt;" class="s4" d="m-285.7-224.6c0 0 30.6 49.9-16.5 99.9"/>
				<path id="&lt;Path&gt;" class="s4" d="m-338.5-238.3c0 0-50.2 31.3-22.2 106.7"/>
				<path id="&lt;Path&gt;" class="s4" d="m-379.8-204.8c0 0 61.3-27.4 114.2 24.9"/>
				<path id="&lt;Path&gt;" class="s4" d="m-384-167.6c0 0 51.1-12.1 108.6 20.6"/>
				<path id="&lt;Path&gt;" class="s4" d="m-372-142.4c0 0 29.7 21 78.3 13.3"/>
				<path id="&lt;Path&gt;" class="s4" d="m-358.7-229.7c0 0 52.8-20.7 85.4 23.2"/>
			</g>
			<text id="NEWS
" style="transform: matrix(2,0,0,2,-289.048,-122.456)" >
				<tspan x="0" y="0" class="t5">NEWS
</tspan>
			</text>
			<text id="YOUR SLOGAN
" style="transform: matrix(2,0,0,2,-233.515,-88.869)" >
				<tspan x="0" y="0" class="t6" dx="0 1 1 1 1 1 1 1 1 1 1 1" >YOUR SLOGAN
</tspan>
			</text>
		</g>
		<g id="&lt;Group&gt;">
			<g id="&lt;Group&gt;">
				<path id="&lt;Path&gt;" class="s0" d="m-301.7 157.4c0 4.2-3.4 7.6-7.6 7.6h-67.6c-4.2 0-7.6-3.4-7.6-7.6v-67.6c0-4.2 3.4-7.6 7.6-7.6h67.6c4.2 0 7.6 3.4 7.6 7.6z"/>
				<text id="N
" style="transform: matrix(2,0,0,2,-384.157,165.08)" >
					<tspan x="0" y="0" class="t7">N
</tspan>
				</text>
			</g>
			<text id="EWS
" style="transform: matrix(2,0,0,2,-295.693,154.908)" >
				<tspan x="0" y="0" class="t8">EWS
</tspan>
			</text>
			<g id="&lt;Group&gt;">
				<g id="&lt;Group&gt;">
					<path id="&lt;Path&gt;" class="s9" d="m-33 154.9c0 4.2-3.4 7.6-7.6 7.6h-67.6c-4.2 0-7.6-3.4-7.6-7.6v-58.3c0-4.2 3.4-7.6 7.6-7.6h67.6c4.2 0 7.6 3.4 7.6 7.6z"/>
				</g>
				<text id="HD
" style="transform: matrix(2,0,0,2,-110.142,144.377)" >
					<tspan x="0" y="0" class="t10">HD
</tspan>
				</text>
			</g>
		</g>
		<g id="&lt;Group&gt;">
			<g id="&lt;Clip Group&gt;" clip-path="url(#cp1)">
				<g id="&lt;Group&gt;">
					<g id="&lt;Group&gt;">
						<path id="&lt;Compound Path&gt;" fill-rule="evenodd" class="s11" d="m324.3 81.3c0 0.5 0.1 0.7-0.3 0.9-0.3 0.1-0.1 0.6 0 0.9-0.6 0-0.8-0.1-1.3-0.5-0.2-0.2-0.9 0.2-1-0.2-0.1-0.5 0-1-0.5-1q-0.9-0.1-1.7-0.1c-0.4-0.1 0.2-1.1-0.5-1-0.4 0.1-0.3 1.1-0.3 1.4 0 0.6-1.9 0.8-2.4 0.9 0.5 0.3 1 0.5 1 1.1 0.1 0.7 0.3 0.9 0.7 1.5 0 0-0.3 0.5-0.3 0.5-0.2 0.1-0.6-0.1-0.7-0.1-0.3-0.1-0.9-0.4-1.2-0.2q-1.5 0.9-3.1 1.9c-0.8 0.4-1.6 0.7-2 1.6-0.7-0.7-0.8-0.8-1.7-0.6-0.9 0.1-0.9 0.1-1.5 0.9q0-0.4 0-0.8c-0.3 0.1-0.8 0.5-1.1 0.5-0.4-0.1-0.7-0.3-1 0.1q-0.7 1.2-1.5 2.4c0.3 0.1 1.2 0.2 1.2 0.6-0.2 0.8-0.3 0.8 0.2 1.5-0.8 0.3-1.5 0.7-1.1 1.7 0.1 0.2-0.6 0.4-0.8 0.5-0.4 0.1-0.7 0.1-0.8 0.6 0 0.5 0.2 1-0.4 1.1-0.6 0.2-0.6 0.1-0.7 0.8-0.2 0.7-1 1.4-1.5 1.9-0.5-2.4-2.3-7.1 0.7-8.5 0.8-0.5 1.3-0.6 1.8-1.4 0.5-0.8 1-1.2 1.7-1.7 0.5-0.4 1.2-0.6 1.3-1.2q0.2-0.8 0.4-1.5c0-0.1 0.7-0.2 0.8-0.2-0.4-0.1-0.8-0.2-1.2-0.1-0.4 0-0.6 0.6-0.8 0.9-0.4 0.7-1.2 1.2-1.8 1.6-0.3-0.7-0.2-1-0.1-1.8-0.5 0.3-0.7 0.5-1.3 0.4-0.7 0-0.8 0-1.3 0.4-0.8 0.6-1.4 1.3-2.1 2.1 0.2 0.2 0.8 0.4 0.6 0.7-0.1 0.1-0.8 0.2-0.9 0.2q-1.1 0.1-2.1 0.2 0.3-0.2 0.7-0.5-1-0.2-2-0.4c-0.2-0.1-0.7 0.4-0.9 0.5-0.2 0.1-0.4 0-0.7-0.1-0.6-0.1-1.2-0.1-1.8-0.1-0.4 0.1-1.5-0.1-1.8 0.2-1.1 1-2.1 1.9-3.1 3-1 1-2 1.7-3.1 2.4 0.1 0.4 0.4 0.4 0.7 0.4 0.4 0 0.4 0 0.6 0.4 0 0.1 0.2 0.7 0.3 0.7 0.8 0.1 0.9 0.2 1.3-0.6 0.3-0.7 2.2 0.9 2.2 1.5-0.3 1.2-0.6 2.5-0.8 3.7-0.3 1.2-0.7 1.9-1.4 2.9-0.6 1-1.1 1.9-1.9 2.7q-0.8 0.8-1.6 1.6c-0.3 0.3-0.9 0.3-1.3 0.4-0.2 0-0.3-0.5-0.5-0.6-0.2 0-0.6 0.4-0.7 0.4-0.6 0.4-0.6 0.6-0.9 1.3-0.4 1.1-1.2 1.7-2 2.5 0.9 0.8 1.6 1.6 1.5 2.9-0.2 0.9-0.1 1.1-0.8 1.5-0.6 0.3-0.9 0.3-1.6 0.3q0.1-0.8 0.2-1.5c0.1-0.6-0.4-0.6 0-1.1 0.3-0.3 0.1-0.8-0.3-0.7-0.3 0-0.9 0.3-1.1-0.3 0-0.3 0.4-1.1 0.5-1.4 0 0-0.9-0.6-1-0.6-0.3 0.1-0.9 0.6-1.1 0.7q-0.6 0.4-1.2 0.7c-0.3-0.7 0.4-1.3 0.9-1.8-0.5-0.3-0.5-0.4-1-0.2-0.4 0.2-0.6 0.4-0.9 0.7-0.4 0.3-0.7 0.5-1.1 0.7-0.1 0-0.9 0.3-0.7 0.5 0.3 0.4 0.6 0.7 0.9 1.1 0.3 0.5 0.3 0.4 0.8 0.2 0.8-0.4 1.4-0.1 2.3 0.1q-1.4 1.2-2.8 2.4c0.4 0.3 0.9 0.6 1.1 1.1q0.5 0.9 0.9 1.9-0.7-0.1-1.4-0.3 0.7 0.6 1.5 1.1-0.6 0.4-1.1 0.8 0.7 0.2 1.3 0.4c-0.5 1.1-1 2.4-1.7 3.4-0.8 0.9-1.4 2-2.5 2.5-1.2 0.5-2.4 1-3.7 1.5q-0.5 0.2-1.1 0.4c-0.3 0.1-0.2 0.1-0.2 0.5 0.1 0.2 0.1 0.7-0.3 0.5-0.2-0.1-0.3-0.6-0.3-0.8 0.1 0 0.2-0.1 0.4-0.2-0.5-0.3-1.2-0.5-1.7-0.2-0.4 0.4-1.4 0.8-1.5 1.4-0.1 0.1-0.4 0.8-0.3 1q0.3 0.5 0.7 1.1c0.3 0.6 0.8 1.1 1.2 1.6 0.5 0.6 0.7 0.8 0.8 1.6 0 0.5 0.3 1.7-0.1 2.1-1 0.9-2.1 1.8-3.2 2.7-0.4-0.4 0.1-1-0.1-1.3q-0.6-0.6-1.1-1.1c-0.7-0.7-1.2-1.1-2-1.2q0-0.3 0-0.6c-0.8 0-0.7 0.2-0.7 1.1-0.1 0.5-0.4 1.1-0.5 1.6-0.1 0.2-0.1 0.5 0 0.7 0 0.4 0 0.4 0.4 0.3 0.2 0 0.5 1.4 0.6 1.6 0.1 0.5 0.9 0.8 1.2 1.1 0.3 0.2 0.8 0.7 0.9 1 0.2 0.5 0 1.2 0.1 1.7 0.2 0.5 0.4 1 0.6 1.5-0.7-0.1-1.1-0.6-1.7-1-0.6-0.5-0.6-0.7-0.9-1.5-0.1-0.4-0.3-1.6-0.6-2q-0.8-0.8-1.6-1.6c-0.2-0.3 0.1-1.6 0.2-2 0-0.7-0.1-1.5-0.2-2.2-0.1-1.4-0.5-2.5-0.9-3.9q-0.4 0.5-0.8 1.1c-0.4 0.4-0.4 0.4-0.9 0.3-0.5-0.2-0.5-0.1-0.4-0.7 0-0.3 0.2-1 0.1-1.2-0.3-0.9-0.5-1.6-1.2-2.2-0.6-0.5-0.8-1.3-1.2-2-0.3 0.2-0.7 0.6-1.1 0.7q-0.9 0.1-1.9 0.3c-0.1 0-0.5 0-0.5 0-0.1 0.2 0 0.6-0.1 0.7q-0.4 0.5-0.9 1-1.3 1.4-2.7 2.7c-0.3 0.3-0.9 0.5-1.3 0.7-0.4 0.2-0.3 0.6-0.3 1.1 0.1 0.5 0.2 1.2 0.1 1.7-0.2 0.4-0.5 1.1-0.4 1.6 0.2 0.7 0.3 1 0.7 1.5 0.4 0.5 0.6 0.9 0.8 1.5 0.5 1-1.3 1.9-1.4 0.5 0-0.6-0.1-1.1 0-1.7 0-0.6-0.2-0.7-0.6-1.1-0.1 0.4 0 0.8-0.3 1q-0.6 0.4-1.1 0.7c-1-1.9-1.9-3.8-2.8-5.8-0.2-0.5-0.6-1.1-0.7-1.7-0.1-0.4 0-0.9 0-1.3q-0.1-1.9-0.2-3.8-0.4 0.5-0.8 1.1c-0.2 0.3-0.3 0.3-0.7 0.3-0.5 0-1.1-1-1.4-1.4 0.3 0 1.1 0 1.1-0.5-0.1 0-0.4 0.1-0.6 0.1-0.5-0.2-1.1-0.7-1.6-0.9-0.3-0.2-0.5-1-0.7-1.4-0.1-0.4-2.8 0.2-3.3 0.3-1 0.1-2-0.3-2.9-0.5-0.5-0.1-1-0.1-1.2-0.5-0.4-0.8-0.3-1-1.1-0.7-0.6 0.2-1 0.1-1.7 0-0.4-0.1-0.7-0.6-1.1-0.8-0.7-0.3-0.7-0.4-1.1-1.1-0.2-0.5-0.3-1.1-0.8-1.2-0.9-0.2-0.9-0.1-1.5 0.6-0.2 0.3 0.5 1.2 0.7 1.4 0.5 1 1 2 1.5 2.9q0.1-0.6 0.2-1.3c0.4 0.7 0.3 1.3 0.3 2.1 0.7-0.1 1.7 0.1 2.3-0.3 0.6-0.4 1.2-1.3 1.6-1.8 0.1 0.5-0.1 1.4 0.4 1.7 0.2 0.2 0.5 0.5 0.8 0.6 0.3 0.1 0.6 0 0.7 0.3 0.1 0.2 0.3 0.8 0.5 0.8 0.4 0.1 0.3 0.4 0.2 0.8 0 0.4-0.8 1.1-1.1 1.4 0-0.2-0.1-0.3-0.1-0.4-0.2 0.5-0.3 0.7-0.3 1.3 0 0.4-0.2 0.4-0.6 0.6q-0.6 0.3-1.3 0.6c-0.2 0.1-0.2 0.8-0.4 0.9-0.2 0.1-0.5-0.2-0.7-0.1q-0.5 0.2-0.9 0.4c-0.4 0.2-0.4 0.8-0.8 0.9q-1 0.4-2 0.7c-0.2 0.1-0.2 0.2-0.4 0.4-0.1 0.3-0.3 0.2-0.6 0.3-0.6 0.1-1.2 0.3-1.8 0.4-0.4 0.1-0.5 0.6-0.9 0.6-0.8 0-0.8 0.2-1-0.6q-0.2-1.1-0.4-2.3c-0.2-1.1-0.8-1.9-1.4-3-0.4-0.6-0.4-0.7-1.1-0.9-0.3-0.2-0.3-1.3-0.4-1.6-0.1-0.6-0.5-1.1-0.7-1.7-0.2-0.3-0.5-0.4-0.7-0.8q-0.6-1.1-1.2-2.2c-0.3-0.3-0.4-0.9-0.9-0.8q0.1-0.7 0.2-1.4-0.3 0.8-0.5 1.7c-0.6-0.7-1-1.2-1.4-2.1-0.4 0.6 0.4 1.5 0.6 2q0.8 1.5 1.5 3c0.3 0.6 0.2 1.3 0.6 1.8 0.2 0.2 0.7 0.5 0.8 0.8q0.1 0.8 0.2 1.6c0 0.3 0 0.8 0.2 1.1 0.3 0.2 0.7 0.5 0.9 0.8 0.5 0.7 0.6 1.7 0.9 2.4 0.1 0.3 0.8 0.3 1 0.5q0.4 0.4 0.8 0.9c0.5 0.6 1.4 1.2 0.7 1.9 0.5 0.1 1 1.1 1.4 1q2-0.5 4-1.1c0.3 0 1-0.3 1.2 0 0.1 0.3-0.4 1.5-0.4 1.8-0.3 1.1-1 2.1-1.5 3-0.5 0.8-0.8 1.7-1.4 2.3-1.6 1.7-3.5 3.3-4.7 5.3-0.3 0.5-2 2.8-1.7 3.2 0.4 0.8 0.4 0.9 0.4 1.8-0.1 0.8 0 0.9 0.5 1.5 0.7 1 0.4 2.5 0.5 3.7 0 0.9-0.7 2-1.4 2.3-0.4 0.2-1.3 0.4-1.6 0.8q-0.6 0.7-1.2 1.4c-0.3 0.4-0.8 0.6-0.5 1.1 0.1 0.4 0.7 1.2 0.6 1.6 0 0.4 0.1 1.5-0.2 1.9-0.2 0.3-1.2 0.6-1.5 0.7-0.6 0.3-0.5 0.5-0.5 1.2-0.1 0.4 0 1.4-0.2 1.7-0.7 1-1.3 2.1-2.1 2.9-0.4 0.5-0.9 0.8-1.3 1.2-0.3 0.2-0.8 0.9-1.1 0.9q-1.8 0.4-3.6 0.8-0.8 0.1-1.6 0.3c-0.3 0.1-0.8-0.6-1-0.8-0.7-0.6-0.6-0.6-0.5-1.5 0-0.4-0.4-1-0.5-1.3q-0.5-1.1-0.9-2.1c-0.1-0.4-0.6-0.7-0.9-1-0.2-0.2-0.2-1.2-0.3-1.5q-0.2-1.2-0.3-2.3c-0.2-1.1-0.7-1.9-1.2-2.9q-0.5-0.9-0.9-1.8c-0.2-0.3 0-0.8 0.1-1.1 0.2-1.4 0.2-2.6 0.9-3.8 0.6-1.1 0.2-2-0.1-3.2q-0.4-1.9-0.8-3.8c-0.1-0.3-0.6-0.8-0.9-1.1q-0.6-0.9-1.3-1.7c-0.2-0.3 0-0.7 0-1.1q0.2-1.2 0.3-2.4c0.1-0.7 0.1-0.7-0.3-1.2-0.4-0.6-0.4-0.7-1.1-0.7-0.4 0.1-1.2 0.3-1.5 0q-0.6-0.8-1.2-1.5c-0.2-0.3-2.7 0.1-3 0.3q-0.9 0.4-1.8 0.9c-0.5 0.2-0.7 0.1-1.2 0-0.5-0.2-0.9-0.3-1.4-0.1q-1 0.3-1.9 0.6c-0.3 0.2-0.7-0.3-0.9-0.4q-1-0.7-1.9-1.4c-0.8-0.6-1.2-0.8-1.7-1.7q-1.2-2.1-2.3-4.1-0.4-0.7-0.8-1.3c-0.1-0.3 0.3-1 0.4-1.2 0.1-0.4 0.5-1.1 0.4-1.5q-0.2-1-0.4-2c-0.1-0.4-0.5-1.2-0.4-1.7 0-0.2 0.4-0.6 0.5-0.9q1.2-2 2.3-4.1c0.5-1 1.2-1.3 2.1-1.9 0.5-0.3 0.7-0.3 0.8-0.9q0.2-1 0.3-2.1c0.2-0.9 1.9-1.1 2.2-1.9 0.2-0.6 0.3-1.4 0.9-1.6 0.2 0 0.6 0.8 1.1 0.7 0.2-0.1 0.7-0.3 0.9-0.2 0.1 0.1 0.5 0.4 0.6 0.3 0.5-0.2 1-0.6 1.4-0.8 0.9-0.4 2-0.8 3-0.9 0.3 0 0.7-0.2 0.9-0.1 0.2 0.1 0.5 0.3 0.7 0.2 0.3 0 0.5-0.2 0.7-0.3 0.2 0 0.5 0 0.7 0 0.7 0.1 1.1 0.2 1.7-0.1 0.4-0.3 0.8 0 1.3 0.2-0.3 0.8-0.4 0.8 0 1.6 0.2 0.3-0.5 0.8-0.8 1.1 0.4 0.3 0.9 0.9 1.3 1.1q1.3 0.3 2.5 0.6c0.6 0.2 0.4 0.9 1.1 1.1 0.5 0.3 1 0.2 1.5 0.5 0.7 0.5 1.1 0.6 1.6-0.3 0.1-0.2-0.3-0.5-0.2-0.7 0.1-0.1 0.3-0.6 0.5-0.7 0.8-0.2 1.1-0.3 1.9-0.1 0.2 0 0 0.4 0.3 0.4q0.5 0.1 1.1 0.3c0.3 0 0.3 0.2 0.4 0.5 0.1 0.1 0.4-0.2 0.5-0.2q0.9 0.3 1.8 0.5c0.6 0.2 0.7 0.2 1.3-0.1 0.7-0.3 0.8-0.4 1.5-0.1 0.8 0.4 2 0.3 2.4-0.7 0.2-0.7 1.3-2.6 0.9-3.3-0.3-0.4 0.3-1.2 0.1-1.4-0.1-0.2-0.3 0.1-0.5 0.2-0.1 0.1-0.4-0.2-0.5-0.2-0.3 0.1-0.4 0.6-0.7 0.7-0.2 0-0.6 0-0.8 0-0.5 0-0.7-0.5-1.2-0.6-0.3-0.1-0.5-0.3-0.7 0.1-0.1 0.4-0.1 0.4-0.5 0.5-0.4 0-1-0.5-1.3-0.7-0.6-0.3-1.6-2-1-2.7q-0.3 0-0.6 0.1c-0.1-0.7 0.8-0.9 1.2-0.9 0.7-0.1 1.1-0.1 1.7-0.4q-0.3-0.2-0.6-0.3c0.1-0.4 0.9-0.2 1.2-0.2 0.6 0.1 0.6-0.1 1.1-0.4 0.3-0.2 0.8-0.5 1.1-0.5 0.5 0.1 1 0.1 1.4 0-0.1 0.2 0.1 0.4 0.3 0.5 0.4 0.1 0.2-0.3 0.6 0.2 0.1 0.1 1 0.3 1.3 0.4 0.5 0.2 0.8-0.1 1.3 0 0.6 0 1-0.2 1.5-0.5 0.4-0.3 0.2-1-0.1-1.2-0.4-0.5-0.8-0.5-1.2-0.9-0.4-0.4-0.7-0.9-1.3-0.9 0-0.1-0.5-0.3-0.5-0.4q-0.4-0.2-0.7-0.5c0 0 0.2-0.2 0.2-0.2q0.3 0 0.6 0.1c-0.2-0.7 0.2-0.9 0.7-0.9-0.2-0.1-0.5-0.3-0.6-0.6q0.3 0 0.6 0c-0.2-0.5 0.4-0.1 0.5-0.4 0.1-0.4-0.4-0.2-0.5-0.2-0.5 0.1-1.1 0.1-1.4 0.6q0-0.1 0-0.2c-0.6 0.2-0.8 0.3-1.3 0.7q0.1-0.1 0.1-0.3c-0.5 0-0.3 0.7 0 1 0.3 0.3 0.7 0.2 1.2 0.2-0.3 0.6-0.7 0.1-1.1 0.3-0.4 0.2-1.2 0.9-1.6 0.6 0.3-0.7-0.1-0.7-0.7-0.9 0.3-0.2 1.5-0.6 0.7-0.9-0.2-0.1-0.5 0-0.8 0-0.2 0-0.4-0.2-0.6-0.4 0.4 0.1 0.8 0.2 0.9-0.1-0.3 0.1-1.2-0.2-1.4 0-0.2 0.2-0.9 0.7-0.9 1.1-0.1 0.2 0 0.7-0.2 0.8-0.1 0.2-0.5 0.2-0.6 0.4-0.1 0.6 0 1.1-0.6 1.4-0.4 0.3-0.3 0.9-0.1 1.3 0.2 0.3 1 0.7 0.9 0.8-0.1 0.4-0.9-0.1-1.1 0.2q-0.6 0.5-1.2 1.1c0-0.4 0.2-0.5 0.5-0.7-0.2-0.1-0.5-0.1-0.7-0.2-0.5-0.2-0.7-0.1-1-0.2-0.2 0-0.5 0.1-0.6 0.2-0.2 0.1 0 0.4-0.1 0.4-0.3 0.3-0.5 0.1-0.8-0.1-0.3 0.3 0.1 0.6 0.2 0.9 0.3 0.5 0.3 0.4-0.1 0.8 0.5 0.4 1.1 0.5 1 1.2-0.3-0.2-0.5-0.5-0.8-0.1 0.3 0.1 0.4 0.3 0.1 0.5-0.3 0.2-0.1 0.4 0 0.7-0.4 0-0.6 0-0.8-0.3-0.1-0.3-0.2-0.2-0.5 0-0.2-0.9-0.4-1 0.3-1.5-0.7 0-0.7-0.1-1-0.6-0.2-0.4-0.4-0.9-0.7-1.1-0.5-0.4-0.3-0.7-0.2-1.4 0-0.6-0.2-0.6-0.6-1-0.7-0.5-1.4-1.1-2.1-1.2-0.2-0.1-0.6-0.7-0.7-0.9-0.2-0.6-0.2-0.7-0.7-1.1-0.2 0.6-0.5 0.3-0.5-0.1-0.1-0.5 0-0.4-0.5-0.2-0.5 0.1-0.8 0.2-0.5 0.7 0.1 0.2-0.3 0.6 0.1 0.9 0.3 0.2 0.7 0.4 0.9 0.7 0.2 0.3 0.2 0.8 0.5 1 0.3 0.3 0.5 0.6 0.9 0.6 0.3 0 0.8 0 0.4 0.4 0.4 0.3 2.4 1.1 1.9 1.8-0.2-0.1-0.8-0.9-1-0.7-0.3 0.2-0.3 0.3-0.4 0.6-0.1 0.3 0.1 0.3 0.3 0.5 0.6 0.4-0.4 0.5-0.3 0.8 0 0.4-0.8 1.1-0.7 0.5-0.4 0.2-0.5 0.7-0.3 1.1 0.2 0.4-0.6 0.5-0.7 0.2-0.2-0.6-2.1-0.5-1.4-1.4 0.2 0.2 1.2 0.2 1.4 0.2 0.3-0.1 0.8-0.1 1-0.2 0.3-0.2 0-0.4 0.3-0.5 0.2-0.1-0.3-1.3-0.4-1.3-0.1 0-0.5 0-0.5-0.3 0.1-0.3-0.2-0.4-0.5-0.3 0.1-0.3-0.5-0.7-0.7-0.7-0.4 0.1-0.7-0.3-0.9-0.6-0.6-0.5-1.3-0.8-1.4-1.5-0.2-0.6-0.2-0.7-0.8-1-0.3-0.1-0.6-0.2-0.8 0-0.2 0.2-1.7 1.3-1.9 1.2q-0.7-0.2-1.5-0.4c-0.2-0.1-0.6 0.4-0.8 0.6-0.1 0.1 0.2 0.8 0 1.1-0.2 0.3-0.9 0.5-1.1 0.6-0.9 0.4-1.1 1.1-1.6 1.9-0.1 0.3 0.5 0.5 0.2 0.9-0.2 0.2-0.7 0.6-0.5 1-0.2 0-0.6 0-0.7 0.2-0.1 0.1-0.3 0.6-0.5 0.6-0.5 0.1-1 0-1.5 0-0.5 0-0.8 0.6-1.1 0.7-0.4 0.1-0.9-0.7-0.5-0.9-0.4 0.1-0.6-0.5-1.1-0.2-0.4 0.2-0.7-0.2-1.1 0.1 0.1-0.3 0.1-0.6 0.1-0.9q0-0.2 0-0.5c0-0.2-0.2 0.1-0.3 0-0.3-0.5-0.1-0.6 0.1-1.2 0.1-0.5 0.5-1.3 0.3-1.7-0.2-0.5-0.1-1-0.1-1.5-0.2 0.2-0.4-0.2-0.3-0.5 0.1-0.2 0.6-0.2 0.8-0.2q0-0.1-0.1-0.2c0.5-0.5 0.7 0.1 1.2 0 0.6-0.1 0.8-0.1 1.4 0 0.4 0.2 0.8 0 1.2 0.1 0.3 0.1 0.9 0.2 1.2 0.1 0.8-0.1 0.7-1.7 0.7-2.4 0-0.6 0.1-0.8-0.5-1-0.3-0.1-0.4-0.7-0.3-0.8-0.3 0-0.2-0.2-0.3-0.2-0.2-0.1-0.5-0.1-0.6-0.1-0.2-0.2-0.3-0.4-0.6-0.3-0.2 0-0.4 0-0.5-0.3 0.1 0 0.1 0 0.2-0.1-0.2-0.1-0.3-0.2-0.3-0.4 0.3-0.1 0.7 0 1-0.2 0.6-0.5 0.3 0.3 0.7 0.2 0.1 0 0.9-0.1 0.8-0.4 0-0.3-0.1-0.6-0.3-0.9 0.2 0 0.5 0 0.6 0.1 0 0.3 0 0.3 0.2 0.3 0.5 0.1 0.7 0.1 1.1-0.1-0.1 0-0.2-0.1-0.3-0.1 0.2-0.3 0.7-0.4 1-0.6 0.5-0.2 0-0.5 0.2-0.9 0.1-0.2 0.8-0.4 1.1-0.5 0.3-0.1 0.6-0.1 1-0.1-0.2 0-0.6-0.1-0.6-0.2 0-0.1 0.4-0.1 0.4-0.2 0.1 0 0-0.2 0.1-0.3 0.2-0.3 0.3-0.5 0.4-0.9 0-0.2 0.4-0.2 0.5-0.4 0.4-0.5 0.8-0.2 1.4-0.3 0-0.1 0-0.3 0.1-0.3q0.2 0 0.4-0.1c0.2 0 0.4 0.1 0.6 0.1 0-0.4 0.3-0.3 0.6-0.3-0.2-0.1-0.6-0.5-0.4-0.6 0.4-0.3 0.1-0.3 0-0.6-0.2-0.4 0.1-0.6-0.3-0.8-0.2-0.3-0.1-0.4-0.2-0.7 0-0.6 0.1-1.3 0.7-1.3 0.5 0 0.9-0.5 1.3-0.7-0.3 0.4-0.4 1.4 0.2 1.6-0.4 0.6-1.1 0.8-1 1.6 0.1 0.6 0.7 1.2 1.3 0.9q-0.2 0.2-0.3 0.5c0.6 0.3 1.1-0.5 1.5-0.5 0.2-0.1 0.7 0.2 0.7 0.4 0.1 0.3 0.4 0.4 0.7 0.6 0-0.1 0-0.3 0-0.4q-0.2 0-0.4 0c0.3-0.2 1.5-0.2 1.8-0.6 0.3-0.5 1.5-0.8 2-0.3-0.1-0.1-0.3-0.1-0.4-0.2 0.1 0.5 0.8 0.6 1 0.3 0.1-0.1 0.2-0.4 0.3-0.5 0-0.1 0.2 0 0.2-0.1 0.2-0.1 0.4-0.2 0.6-0.4-0.1 0.2-0.2 0.3-0.4 0.5 0.9 0.4 0.4-1.2 0.4-1.6q-0.1-0.5 0.2-0.8c0.2-0.3 0.1-0.6 0.4-0.9 0.8-0.5 0.9 0.8 1.5 0.8 0.3 0 0.6-0.4 0.5-0.7 0-0.2 0.2-1 0.1-1-0.1-0.1-0.3 0.2-0.3 0.1-0.1-0.1-0.2-0.3-0.4-0.4 0-0.1-0.2-0.7-0.1-0.8 0.5-0.2 1.2-0.6 1.8-0.5q0.7 0.1 1.4 0.2c0.6 0.1 0.1-0.2 0.4-0.4 0.3-0.1 0.6-0.1 0.9-0.2 0.2-0.1 0.6 0 0.8 0.1-0.1-0.5-0.9-0.6-1.3-0.8 0.1-0.1 0.1-0.2 0.1-0.3-1.2 0.2-2.5 0.6-3.8 0.8-0.1 0-0.7 0.2-0.7 0.1-0.3-0.4-0.4-0.5-0.8-0.7-0.5-0.2-0.4-0.1-0.3-0.7 0-0.4 0-0.6-0.1-1 0-0.2-0.3-0.9-0.2-1.1 0-0.3 0.5-0.7 0.7-0.9 0.4-0.4 0.9-0.7 1.3-1.2 0.2-0.3 0.5-0.8 0.8-1 0.3-0.1 0.7 0.2 0.5-0.4-0.2-0.6-0.6-0.9-1.3-0.9-0.8 0-0.9-0.1-1.5 0.6-0.4 0.4-0.6 0.8-0.3 1.3 0.3 0.5-2.1 1.8-2.3 2-0.6 0.8-1.6 2-1 3.1 0.3 0.4 1.1 0.4 1.4 1 0.1 0.4-0.5 0.7-0.8 0.9-0.5 0.5-0.9 0.6-1 1.3-0.1 0.6 0 1.4-0.3 1.8-0.2 0.7-0.8 0.7-1.3 0.9-0.3 0-0.3 0.3-0.3 0.5-0.1 0.3-0.3 0.2-0.5 0.2-0.5 0.1-0.5 0.2-0.6-0.3 0-0.2-0.1-0.6 0-0.8 0.1-0.5-0.6-1.1-0.8-1.5-0.2-0.1-0.1-0.4-0.2-0.6-0.1-0.2-0.3-0.5-0.3-0.8-0.1-0.2 0.1-0.6-0.1-0.7-0.3 0-0.3-0.5-0.4-0.7-0.2 0.7-0.3 0.7-0.8 1.1-0.4 0.2-0.6 0.6-1 0.9-0.6 0.3-2 0.1-2.1-0.7 0-1.1-0.4-2.2-0.4-3.3 0.1-0.9 0.1-0.9 0.8-1.5 0.4-0.3 0.8-0.5 1.2-0.7 0.6-0.2 1-0.4 1.4-0.9q0.5-0.6 1.1-1.1c0.9-0.8 1.2-1.8 1.9-2.8 0.6-1 1.3-1.7 2.1-2.5 0.7-0.9 1.4-1.8 2.4-2.2 1-0.5 2.1-0.8 3.2-1.2 0.5-0.1 0.7-0.8 1.1-1.1 0.4-0.2 0.9-0.2 1.4-0.2-0.6 0.6-0.8 0.9-1 1.6 0.5 0 0.9-0.9 1.2-1.3q0.1 0.4 0.2 0.8 0.3-0.5 0.6-0.9c0.1-0.1 0.7 0 0.8 0q-0.2 0.3-0.4 0.7c0.6 0.4 0.3-0.7 0.8-0.5q0.7 0.3 1.5 0.6c0.4 0.2-0.4 0.6-0.6 0.6-0.3 0.1-0.8-0.1-1.2-0.1 0.2 0.4 0.6 0.2 0.8 0.6 0 0.1 0.5 0 0.7 0 0.4 0 0.8 0.2 1.1-0.2 0.1-0.2 0.7 0.2 0.9 0.3-0.1 0.4-0.5 0.2-0.8 0.1-0.1 0.8 1.3 0.5 1.7 0.5 0.8 0.1 1.2 0.3 1.9 0.7 0.7 0.4 1.3 0.7 2 0.9 0.6 0.2 1.3 0.6 1.5 1.2 0.2 0.6 0.2 0.6-0.2 1.2-0.2 0.3-0.3 0.5-0.6 0.6-0.8 0.3-1.1 0.3-1.9 0.1-1.4-0.3-2.6-0.7-4-1.3 0.4 0.4 1.5 1.1 1.5 1.7 0 0.6-0.1 1.8 0.5 2.1 0.6 0.2 1.4 1 2 0.7 0.4-0.1 0.2-0.7-0.2-0.7-0.4 0-0.5-0.3-0.7-0.7 0.5-0.5 0.6-0.4 1.3-0.1q0.8 0.3 1.7 0.6c-0.1-0.2-0.5-1.3-0.5-1.3q0.7-0.5 1.3-0.9c0.2-0.1 0.6-0.6 0.9-0.5q0.7 0.2 1.4 0.4c0-0.2 0.2-0.7 0.1-1 0 0-0.4-0.7-0.4-0.6q0.1-0.7 0.3-1.3c0-0.1-0.5-0.6-0.6-0.7q0.8 0.1 1.6 0.2c0.5 0.1 0.7 0.7 1 1-0.3 0.1-1.1 0-1.2 0.2-0.3 0.4 0.2 0.7 0.4 1.1 0.3 0.3 0.7 0.1 1.1 0 0.6 0 0.2-0.4 0.5-0.8 0.1-0.2 0.6-0.3 0.7-0.4q0.8-0.3 1.5-0.6 1.1-0.5 2.3-1c0.2 0.7 0.2 0.7 0.8 0.8 0.5 0.1 0.7-0.7 1.1-0.6 0.5 0 0.9 0.1 1.4-0.1 0.5-0.3 0.7-0.3 1.3-0.1q-0.1 0.2-0.3 0.5c0.7 0.2 0.7 0.2 1.2-0.4 0.4-0.6 0.1-0.6-0.3-1.2 1-0.4 2.4-0.3 3.4 0.1q1 0.4 2 0.8c0.5 0.2 0.9 0.8 1.4 1.1 0-0.3 0.3-1.1 0.1-1.3q-0.8-0.5-1.5-1.1c-0.4-0.2 0.2-0.9 0.3-1.2 0.1-0.3-0.6-0.6-0.9-0.8q0.8-0.5 1.5-1.1c0.3-0.3 0.5-1.2 0.6-1.7 0.2-0.5 2.5 0.1 3 0.1q-0.3 0.9-0.6 1.7c-0.1 0.3 0.4 1 0.6 1.3 0.2 0.5-0.6 2.7-0.2 3 0.5 0.3 1 0.4 0.8 1-0.2 0.3-0.4 1.1-0.7 1.3q-0.7 0.5-1.5 1c-0.3 0.1-1-0.1-1.2-0.2 0.6 0.6 1.4 1.1 2.3 0.8 0.7-0.3 1.5-1.3 2-1.8 0.6-0.6-0.9-1.5 0.4-1.9 0.2-0.1 0.9-0.4 1.1-0.2q0.4 0.5 0.9 1.1c-0.1-0.5 0-1-0.4-1.2-0.5-0.4-0.6-0.4-1.2-0.3-0.1 0-1.3 0.3-1.4 0.2-0.1-0.4-0.4-1-0.2-1.3 0.2-0.4 0.6-0.9 0.4-1.3-0.2-0.3-0.9-1-0.7-1.3 0.3-0.5 0.8-0.6 1.3-0.8 0.3-0.1 0-1-0.1-1.2 0.3-0.1 0.8 0.7 0.6 1-0.3 0.7-0.3 0.6 0.1 1.3 0.3 0.5 2.2 0.5 2.7 0.5q-1.1-0.3-2.1-0.8c-0.8-0.4 0.6-1 0.9-1.1 0.9-0.3 1.3 0 2.3 0.3 0.3 0.1 0.5 0.4 0.8 0.5 0.2 0.2 0.6 0 0.9 0-0.1-0.2-0.2-0.8-0.4-1-0.2-0.2-0.8-0.2-1.1-0.2-0.3-0.1-0.4-1.4-0.4-1.8q1.6-0.2 3.1-0.3 0.9-0.1 1.8-0.2c0.4 0 0.3-0.5 0.3-0.9 0-0.7-0.1-0.8 0.5-1.1 0.5-0.3 0.9-0.6 1.4-0.8 0.9-0.4 2.1-0.4 3.2-0.6 1.9-0.3 3.7-0.6 5.6-1.3 0.4-0.1 0.2-0.8 0.6-1q0.8-0.4 1.6-0.9c0.6-0.3 1.8-0.3 2.3 0.4q-0.8 0.2-1.5 0.5 1.2 0.2 2.4 0.3-0.5 0.5-1 0.9 0.7 0 1.3 0.1c0-0.2 0-0.9 0.1-0.8q0.6 0 1.1 0c0.5 0 1.1-0.1 1.6 0.2 0.4 0.3 1.2 0.6 1.5 1.1 0.1 0.1 0.6 0.6 0.5 0.7-0.1 0.2-0.2 0.7-0.3 0.8q-3.3 2-6.6 4 2.3-0.6 4.6-1.3-0.6-0.1-1.2-0.2c0.4-0.4 1.2-0.7 1.7-0.3 0.8 0.6 1 0.6 2 0.5 1.3-0.2 2.6 0.1 3.9 0.3q-0.3 0.2-0.7 0.4c0.3 0.1 0.9 0.6 1.2 0.6q0.8-0.1 1.6-0.1c0.3 0 1.1 0.1 1.2-0.3 0.1-0.8 0-0.7 0.7-0.7 0.5 0 1 0 1.5-0.1 0.4 0 1.1-0.4 1.5-0.3 0.3 0.2 0.8 1 1 1.2 0.2 0.2-0.1 1.2-0.1 1.4-0.1 0.3 0 1.4 0.1 1.5q0.7 0.4 1.5 0.8c0.2 0.2 0.8-0.9 1-1.1 0.4-0.6 0.3-0.6 0.8-0.3 0.6 0.4 0.7 0.6 1.3 0.4 0.4-0.1 0.9-0.4 1.3-0.2 0.3 0.1 0.9 0.6 1.2 0.5q0.8-0.3 1.5-0.6c-0.1-0.3-0.6-0.8-0.4-1 0.1-0.2 0.6-1.1 0.8-1q1.4 0.2 2.8 0.3c0.7 0.1 1.4 0.4 2.1 0.6 0.7 0.2 1.8 0.2 2.4 0.6 0.5 0.2 1.4 1.8 1.8 1.7q1.4-0.2 2.8-0.5c0.8-0.1 1.5 0.3 2.3 0.5 0.4 0.1 0.6 0 0.8 0.5 0.1 0.5 0.1 0.7 0 1.2 0.7 0.2 1.4 0.5 2.2 0.4 0.9-0.2 1.5-0.2 2.4-0.1 0.4 0.1 0.8 0.3 1.1 0.1 0.5-0.4 0.4-0.4 0.9 0 0.2 0.3 0.7 0.9 1 1.1 0.3 0.1 0.9-0.1 1.1-0.1q-0.1-1-0.2-1.9 2 0.2 4 0.3c1 0.1 2 0.8 3 1.3q1.6 0.8 3.2 1.7c0.7 0.4 0.8 0.4 1 1.2 0.4 0.8 0.3 1.1 1.1 1.1q-0.2-0.5-0.3-1c0.8 0 1.3 0 2 0.3 0.6 0.1 1.1 0.8 1.6 1.1-0.3 0.3-0.7 0.8-1.1 0.9-0.2 0-0.8-0.2-1.1-0.2zm-175.2 72.9c0.2 1.1 0.2 1.1-0.3 1.9q-1.1 1.5-2.1 3c-0.4 0.5-0.8 0.9-0.8 1.4q-0.2 2.3-0.3 4.5c-0.1 1-1.1 2-1.6 2.8-0.2 0.3-0.4 0.9-0.8 0.9-0.4 0-1.3-0.1-1.6 0.1q-1.5 1-3 2.1c-0.2 0.1-0.2 1.6-0.2 1.8 0 0.3 0 0.9-0.2 1.1q-1.2 1.6-2.4 3.2-1.1 1.4-2.2 2.8c-0.2 0.3-2.6-0.8-2.9-0.9-0.2 0.8 1.1 0.9 1.2 1.6 0.1 0.4 0.4 1 0.3 1.3 0 0.4-0.5 0.8-0.7 1-0.5 0.8-1.1 0.7-1.9 1-0.8 0.2-1.1 0.2-1.9 0 0.1 0.5 0.3 0.7 0.1 1.2-0.1 0.3 0 0.7-0.2 0.8-0.7 0.6-1.2 0.4-2 0 0 0.4-0.1 0.9 0 1.3 0 0.3 0.5 0.8 0.4 1q-0.4 0.8-0.8 1.6c-0.2 0.6-0.3 0.5-0.8 0.7-0.5 0.1-0.6 0.5-0.8 0.9-0.2 0.3 0.4 0.8 0.6 1.1 0.2 0.3 0.9 0 0.7 0.5-0.1 0.5-0.2 0.7-0.5 1.1-0.3 0.3-0.7 0.6-0.8 1.1-0.2 0.6-0.4 0.6-0.9 1-0.6 0.3 0 2 0.1 2.6 0.1 0.2 0.1 0.7 0.3 0.9q0.6 0.5 1.2 1c0.7 0.7 1.2 0.6 2.1 0.6q-1.2 0.5-2.5 1.1c-0.7 0.3-0.8 0.1-1.5-0.2q-1.5-0.7-3-1.4c-0.5-0.3-0.6-0.8-0.8-1.4-0.5-1.3-1.5-2.6-1.3-4.1q0.4-3.2 0.8-6.5c0.2-2.1 0.3-4.3 0.7-6.4q0.7-3.9 1.5-7.8 0.4-2.4 0.9-4.8c0.1-0.7 0.3-1.4 0.4-2.1 0-0.6-0.2-1.3-0.3-1.8 0-0.4 0-1.3-0.2-1.6-0.2-0.4-0.9-0.7-1.2-0.9q-0.9-0.6-1.8-1.3c-0.6-0.4-0.8-0.9-1.2-1.6q-1.1-2.1-2.3-4.2-0.9-1.7-1.8-3.5c-0.4-0.7 0.2-2 0.4-2.8 0.1-0.3 0.1-1.2 0.4-1.5q0.5-0.6 1-1.3c0.8-1 1.5-1.6 1.3-3.1 0-0.3-0.2-0.5 0-0.7 0 0-0.1-0.5 0-0.7 0.1-0.4-0.9-0.8-0.8-1.2 0.1-0.5 0.1-0.5-0.3-0.7-0.3-0.2-0.3-0.2-0.7 0-0.2 0.1-0.4 0.3-0.6 0.5-0.1 0.1 0.2 0.5 0.3 0.6-0.6 0.3-0.6 0.3-0.9-0.3-0.1 0.3-0.7-0.3-1-0.3-0.2-0.1-0.3 0.1-0.5 0q-0.2-0.2-0.5-0.4c-0.4-0.3-1.1-0.6-1.4-1-0.2-0.4-0.1-0.9-0.4-1.3-0.7-0.8-1.2-1.5-2.2-1.8-0.8-0.2-2.1-0.3-2.7-0.9q-0.8-0.8-1.6-1.6c-0.4-0.4-0.9 0-1.3 0.1-1 0.3-1.9-0.4-2.9-0.7q-1.1-0.5-2.2-0.9c-0.2-0.1-0.7-0.2-0.8-0.4q-0.8-0.7-1.5-1.5c-0.4-0.4-0.2-0.7 0-1.3 0.1-0.4-0.6-1.2-0.9-1.6-0.2-0.3-0.4-0.6-0.7-0.9q-0.8-0.7-1.6-1.4c-0.1-0.2 0.1-0.5 0.1-0.6 0-0.2-0.3-0.5-0.4-0.6-0.3-0.4-0.6-0.9-1.1-1.2-0.4-0.3-0.8-0.5-1-1 0-0.3-0.3-1.7-0.5-1.8q-0.7-0.3-1.4-0.6c0.1 0.5 0.2 1.6 0.6 2 0.5 0.6 0.9 1.1 1.3 1.9 0.1 0.4 0.2 0.5 0.6 0.9 0.3 0.2 0.3 0.5 0.5 0.9 0.1 0.3 0.3 0.7 0.3 1 0 0.6 0.2 0.2 0.4 0.3 0.2 0.2 0.6 0.6 0.6 0.9-0.1 0.4-0.4 0.4-0.6 0.1-0.4-0.6-1-1-1.5-1.4-0.2-0.1-0.1-0.8-0.1-1-0.1-0.4-0.5-0.6-0.7-0.8-0.3-0.1-0.5 0-0.7-0.3q-0.4-0.3-0.8-0.7c0.3 0 1.1-0.1 0.7-0.7-0.4-0.5-0.6-0.8-1.1-1.1-0.4-0.1-0.5-0.8-0.6-1.1q-0.4-1-0.8-2c-0.3-0.7-1.2-1.4-1.9-1.6-0.6-0.1-0.8-0.1-1-0.6q-0.4-0.9-0.8-1.8c-0.4-0.9-1.2-1.4-1.5-2.4-0.4-1.2-0.4-2.1-0.3-3.4q0.1-1.6 0.2-3.3c0-1.1-0.2-1.7-0.6-2.7 0.7 0.1 1.2 0.3 1.8 0.5 0.1-0.9 0.1-1-0.5-1.6-0.4-0.5-0.8-0.8-1.3-1.2-0.5-0.3-1-0.3-1.5-0.5-0.8-0.4-0.9-0.4-1.2-1.2-0.5-1-1.9-1.5-1.8-2.6 0.1-1 0-0.9-0.8-1.4-0.1-0.1-0.6 0.9-0.9 0.4-0.3-0.4-0.7-1.4-1.1-1.5-0.5-0.3-0.7-0.4-1-1-0.4-0.5-0.7-1.2-1.1-1.7-0.4-0.3-0.9-0.6-1.3-0.9-1-0.6-1.9-1-3-1.4-0.5-0.2-1 0.2-1.5 0.1-0.4-0.1-1-0.6-1.4-0.9-0.6-0.3-0.7-0.5-1.4-0.4-0.5 0-0.8 0.2-0.6 0.9 0.2 0.6-2.2 1.3-2.7 1.4-0.1-0.2 0-0.4 0.3-0.5-0.4-0.1-0.1-1.2 0.2-1.4 0.5-0.3 0.8-0.3 1.5-0.3q-0.2-0.2-0.5-0.4 0.3-0.2 0.5-0.4c-1 0.2-1.4 0.4-2.3 1.1-0.7 0.6-1.1 1.2-1.5 2.1q0.3 0 0.7 0.1c-0.7 1-1.5 1.5-2.4 2.2-0.5 0.4-2 0.7-2 1.4-0.1 0.7-2 1-2.5 1.2-0.3 0.1-0.5 0.1-0.7 0.1-0.3 0-0.2 0.2-0.4 0.3-0.5 0.3-0.8 0.4-1.3 0.3 0.5-0.4 0.9-0.6 1.5-0.9 0.4-0.2 1.5-1.3 1.9-0.7 0.2-0.5 1.2-1.5 1.7-1.2-0.2-0.4 0.7-0.7 0.8-1.3 0-0.4 0.1-0.5 0.3-0.8 0.2-0.2 0.4-0.3 0.2-0.6-0.6 0.4-1.3 0.9-1.9 0.4-0.2-0.1-0.7-0.6-0.9-0.5q-0.5 0.2-1 0.4-0.2-1-0.4-2c-0.1 0.1-1 0.8-1.1 0.7-0.3-0.3-0.9-0.6-1.2-1-0.2-0.4-0.2-1.2-0.3-1.6-0.1-0.4 0.2-0.7 0.4-1 0.4-0.7 0.3-0.8 1-0.8 0.6 0.1 0.7-0.4 1.2-0.6 0.5-0.2 0.9 0.2 1.1-0.4 0.2-0.5-0.1-0.6-0.4-0.9q0.2-0.2 0.4-0.3c-0.2-0.6-0.7-0.1-1.1 0.1-0.4 0.3-0.5 0-1 0-0.9 0.2-2 0.4-2.5-0.7 0.2 0 0.3-0.1 0.4-0.1-0.5-0.2-1.1-0.3-1.4-0.7 0.7-0.4 1.1-0.7 1.9-0.7q-0.1-0.1-0.2-0.2c0.6-0.3 0.9-0.4 1.6-0.4-0.1 0.7 0.5 0.6 1.1 0.8 0.5 0.1 0.6-0.1 1.1-0.4q-0.3-0.2-0.6-0.3 0.1 0 0.2-0.1c-0.2-0.2-0.3-0.4-0.1-0.5-0.5-0.1-0.9-0.2-1.5-0.3-0.4-0.2-0.4-0.8-0.8-1-0.2-0.2-1.4-0.5-1.5-0.8-0.1-0.1 0.2-0.6 0.2-0.8 0.1-0.1 0.3-0.1 0.4-0.1 0.4 0 1.1 0.2 1.4-0.3 0.3-0.4 0.6-0.9 1-1.3 0.7-0.6 1.7-1 2.6-1.2 0.6-0.1 1.1-0.1 1.5-0.4 0.7-0.6 0.6-0.6 1.4-0.2 0.6 0.3 2.4-0.1 2.7 0.7 0.2 0.5 2.1 0.5 2.8 0.6 0.9 0.1 1.9 0.2 2.8 0.4q2.1 0.3 4.2 0.7c0.9 0.2 1.8 0.7 2.7 1.1 0.1 0.1 1.1-1.1 1.3-1.3 0.2-0.2 0.7 0.5 1 0.4 0.5-0.2 2.8-1.6 3.1-1q-1.2 0.6-2.5 1.2c0.7 0.5 2.7-1.3 2.9-0.6q0.4-0.4 0.8-0.8c0.1-0.2-0.3-0.3 0-0.6 0.6 0.7 1.3 1.4 1.9 2 0.3-0.6 0.3-0.9 0.9-1.3 0.3 0.3-0.3 0.4 0.1 0.7 0.2 0.1-0.1 0.4-0.1 0.6 0.2-0.1 0.7-0.1 1-0.3 0-0.1-0.1-0.4 0-0.4q0.2-0.1 0.5-0.1c0.5-0.1 1.2 0.5 1.7 0.7 1.1 0.4 2.2 0.6 3.3 0.9q0-0.1 0-0.3c0.6 0.1 1 0.4 1.6 0.8 0.4 0.3-0.9 0.8-1 0.8 0.4 0.2 0.9 0.4 1.4 0.4q1.2-0.1 2.4-0.2c0.3-0.1 1-0.2 1.2 0.2q0.6 0.8 1.1 1.6-0.1-0.3-0.2-0.7c0-0.1 0.1-0.2 0.1-0.4-0.1-0.5-0.3-0.4 0-0.9 0.2-0.4 1.8-0.4 1.5-1-0.8 0.3-1.4 0.6-2.2 0.5 0.2-0.7 0.5-0.6 1.1-0.8 0.7-0.2 0.8-0.3 1.4 0.1 0.1 0.1 0.2 0.5 0.3 0.6 0.2 0.3 0.3 0.2 0.6 0.3 0.5 0.1 0.9 0.3 1.4 0.5 0.4 0.1 2.7 0.4 2.8 0.1 0.2-0.7 0.2-1 0.9-1 0.4 0 0.9 0.3 1.4 0.4-0.1 0.2-0.4 0.8-0.3 1 0.1 0.2 0.7 0.5 0.9 0.6-0.3-0.7-0.5-1.4 0.4-1.5 0.3-0.1 0.5-0.4 0.8-0.7 0.2-0.2 0.1-0.4 0-0.7q-0.3 0.2-0.7 0.4c0-0.8 0.5-0.9 1-0.9 0-0.6-0.6-0.2-0.9-0.3-0.3-0.1-1.2-0.3-1.3-0.6-0.3-0.6-0.3-1-0.3-1.6 0-0.7 0.3-0.8 0.8-0.6 0.1-0.3-0.1-0.4-0.4-0.4 0.5-0.3 0.6-0.2 0.6-0.9 0-0.5 0-0.7-0.3-1.2-0.2-0.3 0-0.8 0-1.2 0-0.3 0.5-0.2 0.8-0.2-0.9-0.9 0.6-0.7 1.2-0.6 0.8 0 1.4 0 2.2 0.3-0.3 0.5-0.8 1.5-1.2 1.8-0.5 0.3-1.5 0-2 0 1.5 0.3-0.2 1.2-0.1 1.7 0.7-0.2 1.2 0.5 1.3 1.2 0.1 0.4 0.8 0.9 1.1 1.3q-0.5 0.4-1.1 0.7c0.4 0.2 0.7 0.4 1 0.2 0.3-0.3 0.6 0 1 0.2q-0.3 0.2-0.6 0.3c0.4 0.3 0.6 0.3 0.5 0.8-0.2 0.5-0.2 0.6 0.2 0.8 0.2-0.3 0.4-0.5 0.4-0.9 0-0.2 0.2-0.9 0.5-0.7 0.2 0.1 0.8 0.4 0.9 0.6 0 0.4 0.3 0.9-0.2 1 0-0.1 0-0.2 0-0.3-1 0.6 1.2 2.6 1.3 1.5 0-0.3 0-0.5 0.2-0.7 0.1-0.1 0.4-0.3 0.4-0.4 0-0.9 0-0.8 0.7-1.1-0.3-0.4-0.5-0.6-0.4-1.1 0.1-0.6 0.4-0.4 0.8-0.4 0.3 0.1 1.1 0.1 1.3 0.3 0.4 0.4 0.5 0.5 1.1 0.6-0.2 0.5 0.1 0.7-0.1 1-0.2 0.2-0.7 0.2-0.9 0.2 0.2 0.4 0.3 0.8 0.6 1.1 0.4 0.4 0.6 0.6 0.2 1.1-0.3 0.4-0.9 0.6-1.3 0.8-0.3 0.2-0.5-0.3-0.8-0.5q0.2 0.5 0.4 0.9-0.3-0.1-0.6-0.3 0 0.1 0 0.3-0.3-0.1-0.6-0.2c-0.2 0 0-0.4-0.2-0.4-0.3 0-0.8-0.1-1 0.3q0.3 0.1 0.7 0.3c-0.3 0.4-0.5 0.8-0.8 0.9-0.5 0.3-0.7 0.1-1.2-0.2-0.7-0.4-1.4-0.4-2.3-0.4q0.9 0.5 1.8 0.9c0.4 0.2 1.2 0.2 1.7 0.2-0.2 0.4-0.6 1.3-0.9 1.4-0.2 0.1-0.4 0.3-0.6 0.3-0.3-0.1-0.5-0.1-0.7 0-0.7 0.5-0.8 0.5-1.5 0.3q-0.7-0.2-1.4-0.4 0.4 0.2 0.9 0.4c-0.1 0.1-0.1 0.2-0.2 0.2 0.5-0.1 0.6-0.1 1.1 0.2 0.2 0.1 0.6 0.5 0.2 0.7-0.4 0.2-0.7 0.2-1.1 0.1-0.2 0-0.4 0.6-0.5 0.7-0.4 0.6-1 1.2-1.1 2q-0.3 1.2-0.6 2.4c0.4 0.1 1.1 0.1 1.3 0.4 0.3 0.2 0.5 1.2 0.6 1.5 0.3 0.7 0.4 0.5 1.1 0.3 0.3 0 0.7 0.2 1 0.3 1 0.3 1.6 0.7 2.5 1.3 0.3 0.2 0.8 0.7 1.1 0.8q0.7 0 1.5 0.1c0.1 0 1 0 1 0.2q0 1 0 2c-0.1 0.9 0.8 1.7 1.4 2.3 0.5 0.7 1.6-0.5 1.5-1.1q-0.1-0.9-0.3-1.8c0-0.3-0.4-0.7-0.6-1 0.6-0.4 1.7-0.8 2.1-1.4 0.4-0.5 0.5-1.9 0-2.4-0.3-0.3-0.6-0.6-0.9-0.9-0.4-0.6-0.5-0.5 0-0.9 0.5-0.5 0.5-0.4 0.3-1.1-0.1-0.4-0.3-0.8-0.2-1.2 0.2-0.7 0.3-0.8 0.1-1.5-0.2-0.4 0.1-0.5 0.5-0.6 0.8-0.1 1.5 0.6 2.3 0.2 0.5-0.2 0.6 0.1 1.1 0.4 0.2 0.2 0.8 0.4 0.9 0.7 0.1 0.4 0.4 0.8 0.8 0.7 0.4 0 0.7 0.1 1.1 0.3-0.3 0.4-0.4 0.5-0.3 0.9 0.1 0.3 0.2 0.7 0 1.1 0.1-0.1 0.2 0 0.3 0-0.2 0.2-0.7 0.6-0.4 0.9 0.5-1.6 2.3 1.7 2.7-0.3 0.1 0.1 0.2 0.1 0.3 0.2 0.2-0.4 0.5-0.9 0.5-1.3-0.1-0.4 0.4-1.1 0.7-1q0 0.3-0.1 0.6c0.8 0 1.3 1.6 1.7 2.3 0.2 0.3 0.8 1 0.9 1.5 0 0.2-0.4 0.5-0.4 0.7 0.1 0.1 0.4 0.4 0.5 0.4 0.2 0.2 0.5 0.3 0.7 0.5 0.1 0.3-0.1 0.5 0.2 0.5 0.6 0.1 0.9 0.1 1.4 0.4 0.3 0.3 1 0.6 0.2 0.7-0.4 0.1-0.8 0.2-1.2 0.4 0.2 0.1 0.6-0.1 0.8-0.2-0.1 0.3-0.7 0.4-1.1 0.5-0.3 0.1-0.2 0.7 0 0.5 0.1-0.2 0.2-0.2 0.5-0.3 0.2-0.1 0.1-0.2 0.2-0.3 0.3-0.1 0.7-0.2 1-0.2-0.2-0.1-0.3-0.1-0.4-0.2 0.3 0 0.7 0 0.8 0.3 0.2 0.3-0.2 0.3 0 0.6 0.3-0.5 0.6-0.2 1-0.1 0.3 0.1 0.1 0.8 0 1-0.1 0.3 0.3 0.5 0 0.9-0.1 0.2-0.7 0.5-0.9 0.6-0.3 0.1-0.7 0-1 0.1-0.4 0.1-0.6 0.4-0.8 0.7-0.6 0.6-1.1 0.7-1.9 0.6-0.9-0.1-1.6-0.1-2.5-0.1-0.7 0.1-1.5-0.2-1.7 0.8-0.1 0.3-0.8 0.4-1 0.5-0.3 0.2-0.6 0.6-0.9 0.9-0.5 0.6-0.7 1.2-1.3 1.7 1-0.5 1.5-1.6 2.5-2.1 0.7-0.3 2.6-1.4 3.1-0.1q-0.2-0.1-0.3-0.1c0.5 0.3-0.2 0.6-0.4 0.8-0.3 0.3-0.6-0.2-1 0 0.2 0.1 0.5 0.5 0.6 0.5 0.2-0.1 0.4-0.1 0.6-0.1 0 0.3-0.2 0.6-0.4 0.7 0.1 0 0.2 0 0.4 0-0.2 0.5 0.3 1 0.7 1.1q0 0-0.1 0.1c0.6 0.2 1.2 0.5 1.7 0.1q0 0.2 0 0.3c0.1 0 0.3-0.1 0.4-0.1-0.4-0.5 0.3-1.1 0.5-1.5 0.5 0.2 0.2 0.6 0.1 1 0.4-0.3 0.8 0.2 0.6 0.3-0.4 0.2-0.8 0.4-1.2 0.4 0.1 0 0.2 0.2 0.2 0.2q-0.7 0.3-1.4 0.6c-0.2 0.1-0.4 0.1-0.5 0.3-0.2 0.2-0.3-0.3-0.4-0.1-0.4 0.2-0.7 0.8-1 1.1-0.2 0.2-0.5-0.1-0.6-0.2-0.5-0.7 0.7-1.3 1.1-1.6 0.3-0.2 0.2 0 0.3 0.2 0.3 0.2 0.4-0.1 0.7-0.3-0.3-0.1-0.8-0.2-1 0 0-0.2 0.1-0.3 0.2-0.5-0.3-0.1-0.8 0.4-1.1 0.6-0.2 0.1-0.2-0.2-0.4 0.1-0.2 0.1-0.4 0.1-0.6 0.1 0.2 0.7-1.1 0.5-1.2 0.8q-0.1-0.1-0.2-0.2c-0.2 0.5-0.4 0.5-0.8 0.6-0.2 0.1-0.2 0.3-0.3 0.6-0.2 0.4-0.9 1.8 0.1 1.7q-0.1-0.1-0.1-0.2c0.1 0 0.1 0.2 0.2 0.2-0.3 0.2-0.7 0.1-1 0-0.1 0-0.1 0.4-0.3 0.4-0.8 0.1-1.1 0.1-1.7 0.6 0.4-0.1 0.8-0.3 1.2-0.4q0 0.1-0.1 0.1c0.1 0 0.2 0.1 0.4 0-0.3 0.2-0.6 0.4-0.9 0.4-0.3 0-0.8-0.1-1 0.2 0.7 0.1-0.3 1.4-0.5 1.6 0.1-0.3-0.4-0.5-0.5-0.8 0.1 0.4 0.6 1 0.4 1.3-0.2 0.4-0.5 0.9-0.6 1.3l-0.1-0.1c0-0.3 0.1-0.5 0.2-0.7-0.2-0.2-0.1-0.5-0.4-0.4 0-0.3 0-0.6 0.1-0.8 0.1-0.1 0.3-0.6 0.1-0.4-0.6 0.4-0.5 0.7-0.3 1.4q-0.3-0.2-0.6-0.3c0.2 0.2 0.5 0.3 0.7 0.5 0 0.2-0.2 0.7-0.1 0.8 0.1 0.3 0.5 0.2 0.4 0.7-0.1 0.3-0.4 0.3-0.7 0.4 0.3 0 0.8-0.1 0.7 0.4 0 0.1-0.6 0.2-0.8 0.2 0.1 0 0.2 0.1 0.3 0.2-0.2 0-0.2 0.1-0.4 0.1 0.1 0.4 0.4 0 0.6 0.2q-0.2 0.1-0.5 0.3c-0.1 0-0.3-0.2-0.4-0.1-0.2 0.1-0.4 0.6-0.6 0.8-0.1 0.1-0.4 0.1-0.6 0.3-0.2 0.2-0.3 0.5-0.6 0.6-0.8 0.5-0.9 0.7-1.3 1.6-0.2 0.4-0.1 1.1 0.1 1.5 0.3 0.8 0.6 1.4 0.8 2.2 0.1 0.4 0.2 1.4-0.1 1.7-0.2 0.2-0.4 0.5-0.6 0.2-0.1-0.2-0.6-0.6-0.6-0.6-0.1-0.4-0.2-0.6-0.4-0.9-0.1-0.3-0.2-0.5-0.2-0.8q0 0-0.1 0.1c-0.2-0.5 0.3-1.1-0.2-1.5-0.4-0.3-0.6-0.8-1.1-0.7-0.3 0.1-0.6 0.3-0.8 0.2-0.2-0.2-0.5-0.5-0.8-0.5-0.4-0.2-1.1 0.4-1.3-0.3-0.1 0.6-1.5 0.2-1.9 0.5 0.3 0 1.4 0.2 0.6 0.5 0.1 0.1 0.5 0.2 0.5 0.3 0.1 0.2-0.1 0.3-0.3 0.3 0.1-0.3-0.3-0.4-0.5-0.5 0 0.2-0.1 0.3-0.1 0.4-0.2-0.4-0.3 0-0.6-0.2-0.3-0.2-0.5-0.5-0.9-0.3-0.2 0-0.5-0.2-0.7-0.2-0.4-0.2-1.1 0.3-1.5 0.4-0.6 0.3-2.1 1.4-2.1 2.3 0 0.3 0.4 0.6 0.4 0.9 0 0.1-0.2 0.5-0.2 0.6-0.1 0.5-0.4 1-0.4 1.6 0 1.3 0.2 2.2 0.9 3.3 0.5 0.6 0.6 1.1 1.3 1.3 0.2 0 0.4 0.4 0.5 0.4q0.4-0.2 0.9-0.4c0.3-0.1 0.5-0.1 0.7-0.1 0.3-0.1 0.4 0.2 0.5 0.2 0.1-0.1 0.3-0.1 0.4-0.2 0.1-0.1-0.1-0.2 0-0.3 0.2-0.3 0.4-0.3 0.5-0.7 0.1-0.5 0.1-1.2 0.7-1.4 0.2-0.1 1-0.3 1.2-0.3 0.4 0.1 1.3-0.1 1 0.6-0.1 0.3-0.5 1.1-0.7 1.1 0.1 0.1 0.1 0.2 0.3 0.2-0.1 0.1-0.2 0.2-0.2 0.2v0.1q0.1-0.1 0.1-0.1c-0.1 0.3-0.2 0.7-0.2 1-0.2-0.1-0.3-0.3-0.2-0.6-0.1 0.1-0.2 0.3-0.2 0.4 0.4 0-0.1 0.9 0 1.2 0.2 0.3-0.3 0.8-0.5 1 0.6 0.2 1.2 0.1 1.9 0.2 0.3 0 0.5-0.2 0.8-0.2 0.2 0 0.6 0 0.9 0.1 0.6 0.3 1 0.7 0.9 1.4q-0.1 0.6-0.2 1.3c-0.1 0.2-0.3 0.5-0.3 0.7-0.2 1.2 1.3 3.1 2.4 2.7 0.6-0.3 1-0.6 1.7-0.4 0.6 0.2 0.9 0.6 1.4 1.2 0-0.9 1-2 1.4-2.7 0.1-0.2 0.9-0.3 1.1-0.4q0.8-0.3 1.7-0.6c0.5-0.2 1.4 0.3 2 0.4q2 0.4 4 0.9c0.7 0.2 1.4 0.2 2 0.7q1.5 1.5 3.1 3c0.7 0.7 2.1 0.7 2.9 0.9 0.8 0.2 1.4 1.5 1.9 2.1q0.8 1 1.5 2c0.2 0.2 0.4 0.7 0.6 0.8q1.6 0.5 3.2 1.1 1.7 0.6 3.3 1.2c0.9 0.3 1.8 1.3 2.6 1.9 0.1 0 1.1 0 1.1 0.1q0.2 0.7 0.4 1.4zm21.8-62.3c0.1 0 0.2 0 0.3 0-0.2 0.2-0.1 0.4-0.1 0.7-0.3-0.2-0.1-0.5-0.2-0.6 0 0-0.1 0 0-0.1zm-51-18.5c0.2 0.5 0.7 0.1 0.9-0.2 0.2-0.5 1.9 0.6 2.2 0.8-0.1 0.4-0.8 0.4-1.2 0.5 0.3 0.1 0.7 0 0.6 0.5 0.3-0.2 0.7-0.3 0.8-0.7 0.3 0.2 0.7 0.4 0.7 0.8-0.5 0-0.7 0-1.2 0.3 0.3 0.1 0.6 0.3 0.8 0.2 0.6-0.1 0.5-0.1 0.7 0.5q-0.5-0.1-1-0.2 0.1 0.3 0.1 0.6-0.3 0.1-0.7 0.1 1.3 0.6 2.6 1c0.4 0.2 0.5 0.3 0.8 0.7 0.4 0.4 0.6 0.4 1.2 0.4q-0.2 0.3-0.4 0.6c0.4 0 1-0.2 1.3-0.1 0.5 0.3 0.3 0.6 0.3 1.2-0.3-0.1-0.7-0.2-0.9 0q0.3 0.1 0.6 0.3c-0.6 0.3-0.8 0.6-1.4 0.2 0.1 0.5 0.2 0.9 0 1.4-0.7-0.4-1-0.6-1.5-1.2 0.3-0.2 0.8-0.2 0.6-0.7-0.2 0.1-0.6 0.3-0.8 0.3-0.3-0.1-0.5-0.6-0.8-0.7-0.2-0.2-0.5-0.2-0.6 0-0.3 0.4 0.2 0.4 0.2 0.8q-0.3 0-0.7 0 0.1 0.3 0.2 0.6c0.4-0.1 0.5-0.3 0.6 0.1q0.1 0.5 0.3 1c0.1-0.5 0.3-0.3 0.6-0.2 0.4 0.2 0.4 0.3 0.5 0.8 0 0.3 0.4 0.2 0.5 0.5 0.2 0.2 0.1 0.8 0.2 1q-0.2-0.2-0.4-0.5c-0.3 0.4 0.3 0.6 0.2 1-0.1-0.1-0.3-0.1-0.3-0.1q0.1 0.2 0.1 0.5c-0.1 0-0.6-0.5-0.8-0.7q-0.8-0.5-1.5-0.9c0.1 0.1 0.1 0.3 0.1 0.4q-0.4-0.2-0.8-0.4 0.2 0.4 0.5 0.9c0.1 0.2 0.5 0.1 0.7 0.2q0.5 0.4 0.9 0.7c0.3 0.2 0.2 0.3 0.1 0.7q-1.2-0.3-2.3-0.6c-0.3-0.1-0.3-0.4-0.5-0.5q-0.6-0.2-1.2-0.3 0.1-0.1 0.1-0.2c-0.4 0-0.6-0.2-1-0.4q0.3-0.2 0.7-0.3c-0.4-0.2-0.8-0.2-1-0.5-0.5-0.7-0.4-1-1.1-0.6 0-0.3-0.1-0.4-0.4-0.4 0 0.1 0 0.3 0 0.4-0.4-0.1-0.8-0.3-1.1-0.1-0.3 0.3-0.8 0.2-1.2 0.3-0.2 0-0.7-0.5-0.5-0.8 0.2-0.3 0.7-0.4 0.6-0.8 0.6 0.1 1.3 0.3 1.9 0.1 0.1 0 1-0.2 1-0.3 0.2-0.3-0.5-0.6-0.6-0.7q0.7-0.8 1.4-1.5c0.2-0.1 0.4-0.2 0.3-0.4q-0.3-0.6-0.6-1.2c-0.3-0.5-1-0.4-1.3-0.9-0.2-0.4-0.2-0.4-0.6-0.2q-0.4 0.2-0.9 0.3c0-0.7 0.1-0.6 0.8-0.8-0.4-0.3-1.1-1.3-1.6-0.8q0-0.3-0.1-0.6c0-0.2-0.3 0-0.5-0.1-0.3-0.2-0.3-0.9-0.8-0.4 0.4 0.1 0.5 0.3 0.6 0.7-0.9 0.2-1.5 0-2.4-0.3q0.3 0.3 0.7 0.7c-0.3 0.1-0.4-0.3-0.7-0.3-0.1 0-0.2 0.3-0.3 0.2q-0.3-0.1-0.6-0.2c-0.6-0.2-1.3-0.1-1.9-0.1-0.2 0-0.8-0.1-0.9-0.3-0.4-0.3 0.1-0.5-0.6-0.4-0.2 0-0.4 0.3-0.8 0.1-0.4-0.2-0.9-0.6-1.1-1.1q0.9 0.1 1.8 0.2c-0.6-0.7-1.1-0.6-2-0.7-0.1 0-0.2-0.9-0.2-1 0-0.3 0.3-1 0.4-1.2 0.3-0.8 0.7-1.2 1.4-1.5 0.9-0.4 1.3-0.4 2.2-0.3q-0.1 0.4-0.2 0.7c0.7-0.1 1.2-0.3 1.8-0.6 0.3-0.1 0.7 0 0.9 0.1 0.4 0 0.3 0.4 0.5 0.7 0.2 0.2 0.3 0.2 0.5 0.5 0.2 0.5 0.1 0.6-0.1 1-0.2 0.4 0.1 0.4 0.3 0.2 0.5-0.4 0.4-0.4 0.9-0.1 0.2 0.1 0.6-0.4 0.7-0.6 0.2-0.1 0.7-0.1 1-0.1 0.4-0.1 1.3 0.3 1.6 0.6 0.3 0.3 1 1.5 1.3 1.4 0.5-0.2 1.5-0.3 1.7 0.4-0.2 0.1-1 0.4-0.9 0.6zm-2.2 4.2c-0.2 0.5 0.1 0.7-0.2 1.2-0.3 0.5-1.1 0-1.4-0.2-0.7-0.6 1-1.9 1.6-1zm-20.7-12.8c-0.4 0.1-0.5-0.2-0.1-0.4q-0.2 0-0.5 0c0-1.1 1.6 0.5 1.8 0.6q-0.2-0.3-0.5-0.7c0.2 0.1 0.3 0 0.4 0-0.1-0.3-1.2-0.3-0.5-0.6 0.6-0.2 1 0.2 1.5-0.1 0.1-0.1 0.5 0.2 0.6 0.2 0.1 0.1 0.4 0.5 0.4 0.6 0 0.2-0.1 0.5-0.1 0.7 0 0.3 0.2 0.3 0.1 0.6 0 0-0.2-0.1-0.2-0.1q0 0.3-0.2 0.4c0.1 0.1 0.2 0.2 0.3 0.3-0.3 0.4-0.9 0.2-1.3 0.1-0.2 0-0.2 0.3-0.4 0.2-0.3-0.1-0.5 0-0.6-0.4 0.1 0 0.3-0.1 0.4 0q-0.3-0.2-0.6-0.2c0.1-0.2 0.3-0.3 0.5-0.2q0-0.1-0.1-0.1 0.3 0 0.4-0.3c-0.5 0.1-1 0.1-1.6 0.2-0.3 0.1-1.3 0.1-0.6-0.4q-0.3 0-0.7 0 0.2-0.3 0.6-0.3c0.3 0 0.9 0.3 1-0.1zm-1.3 10.5c-0.1 0-0.2 0-0.3 0 0.2 0.2 0.2 0.5 0.1 0.8 0.3-0.3 0.6-0.6 1.1-0.5-0.3 0.4 0.1 0.3 0.1 0.6 0 0.2-0.7 0.4-0.8 0.4-0.7 0.1-1.3-0.3-1.9-0.3 0.1 0 0.1-0.1 0.2-0.1q-0.6-0.2-1.1-0.3c0-0.1 0-0.2 0-0.3-0.3-0.1-0.3 0.2-0.5 0.4-0.3 0.2-0.4 0.2-0.8 0.3-0.5 0.1-0.7 0.5-1.3 0.5q-1.2 0.1-2.4 0.2c-0.6 0-0.8-0.3-0.7-1.1-1.1 0-2.5 0.2-2.9-1.2 0.7-0.1 1.6-0.5 2.3-0.5 0.5 0.1 0.9 0.2 1.4 0.2 0.2 0 1.2-0.1 0.6-0.3-0.9-0.2-1.6-0.4-2.5-0.4q-0.9 0-1.7 0c-0.5 0-0.6-0.2-0.9-0.5q0.8-0.4 1.7-0.8-0.8 0-1.7 0.1c0.1-0.1 0.1-0.3 0.2-0.3q-0.4 0-0.8 0c-0.1-0.6 0.4-0.8 0.7-1.1-0.1-0.1-0.2-0.2-0.4-0.2 0.9-0.7 1.5-0.9 2.4-1.3 0.5-0.2 0.6-0.3 1.1-0.1 0.5 0.3 0.1 0.7-0.3 1.1q0.4-0.1 0.7-0.1c0.3 0 0.3-0.5 0.5-0.5 0.3-0.1 1.1 0.5 1.4 0.6q-0.1 0.2-0.3 0.5c0.4 0 0.4 0 0.7-0.4 0.1-0.2 0.6 0.1 0.8 0.1q-0.4-0.4-0.8-0.8c0.5 0 1.5 0 1.7 0.6q0.2 0.6 0.4 1.3c0.1 0.4 0.3 0.1 0.6 0q-0.2-0.7-0.4-1.4-0.2-0.3-0.3-0.6c0-0.2 0.3-0.3 0.1-0.6 0.2 0.1 0.7 0.5 0.8 0.3 0.3-0.3 0.5 0.1 0.8 0.3 0.7 0.4 0.9 1.5 1.2 2.3 0.2 0.3-0.1 0.7 0 0.9 0.1 0.3 0.9 0.6 1.1 0.7 0.6 0.4 1.2 0.7 1.7 0.6 0.1 0.4 0.1 1.4-0.4 0.6 0 0.1-0.1 0.2-0.1 0.3-0.4-0.3-0.7-0.5-0.8 0.2-0.1-0.1-0.2-0.1-0.3-0.2zm3.5 0.6q0.1-0.1 0.1-0.1c-0.3-0.2 0-0.5 0.2-0.7 0.3-0.3 0.6 0 0.9 0.2 0.5 0.4 1 0.8 1.4 1.2-0.3 0.3-0.7 0.7-1.1 0.6-0.4-0.1-1.2-0.1-1.4-0.6q0 0.1 0 0.2-0.3 0-0.4-0.3c0 0.1-0.1 0-0.1 0.2-0.1-0.1-0.3-0.2-0.4-0.3 0.2-0.4 0.6-0.1 0.8-0.4zm72.6 14.9c0.1 0 0.2 0.4-0.2 0.5q0.1 0 0.1 0.1c-0.2 0.1-0.3 0.2-0.5 0.4q0-0.1 0-0.2 0 0 0.1-0.1c-0.5-0.3 0.2-0.5 0.5-0.7zm-58.8-6.5c-0.5-0.1-1.7-0.3-1.6-1-0.5 0.1-0.4 0.5-0.9 0.7-0.3 0.1-0.5 0.5-0.8 0.8-0.2 0.1-0.3-0.9-0.4-0.9-0.1-0.1-1 0.2-1.2 0.2 0.2-0.2 0.7-0.7 0.8-0.8 0.1-0.2-0.1-0.4-0.1-0.6q0.1-0.4 0.2-0.7c0.1-0.6 0.1-1 0.6-1.2 0.5-0.3 0.7 0.5 0.1 0.6 0 0.1 0.1 0.3 0.2 0.4 0.3-0.4 0.3-0.3 0.6 0 0.2 0.2 0.5 0.1 0.7 0.2 0.3 0.2 1.8 1 1.2 1.5 0.6-0.1 0.7 0 1.3 0.3q-0.4 0.3-0.7 0.5zm-8.8-18.7c0.4-0.4-0.2-0.9-0.5-1.1-0.3-0.5-0.6-0.3-1.1-0.2-0.6 0.1-0.9 0.2-1.4-0.3-0.5-0.5-0.8-0.8 0-1.1 0.5-0.1 1.1 0.1 1.6 0.2 0.4 0.1 0.6 0.5 1.1 0.6 0.5 0.1 1-0.3 1.4 0 0.3 0.1 0.1 0.3 0.5 0.4q0.3 0.1 0.7 0.2c-0.1 0.4-1 0.1-0.9 0.4 0 0 0.9 0.5 1 0.6q0.4 0.2 0.7 0.4c0.1 0.1 0.4-0.2 0.5-0.2 0.5-0.1 1.1 0.2 1.5 0.3-0.1 0-0.1-0.1-0.2-0.2 0.4-0.1 0.8-0.2 1.2-0.3 0.5-0.2 0.8 0 1.2-0.1 1-0.3 2 0.2 2.7 0.8q-0.3 0.2-0.6 0.4c0.3 0.1 0.5 0.1 0.7 0.3-0.4 0.1-0.5 0.1-0.7 0.6 0 0.2-0.9 0.2-1.1 0.2-0.4 0.1-0.6 0-0.9-0.2-0.4-0.1-0.1-0.6-0.6-0.6q0 0.3 0.1 0.6c-0.4 0-1.1 0.4-1.2-0.2-0.2 0.6-0.8 0.4-1.1 0.1 0 0.1 0 0.2 0 0.3q-0.7 0-1.4 0c-0.5-0.1-0.1-0.6-0.5-0.8 0 0.2-0.1 0.4-0.1 0.5 0-0.1-0.1-0.2-0.2-0.3-0.1 0.5-0.4 0.4-0.7 0.4-0.4-0.1-0.4-0.1-0.6-0.5-0.2 0.1-0.8 0.5-0.9 0.1-0.3-0.6-0.4-0.7-0.2-1.3zm14.9 12.5c-0.1 0-1.4 0-1.1-0.3 0.4-0.3 0.9-0.2 1.1 0.3zm-13.4-23.5q-0.7-0.3-1.3-0.6c0.6-0.4 1.4-0.8 2.1-0.3 0.5-1.1 1.7-0.5 2.6-0.6q-0.3-0.2-0.7-0.3 0.5 0 1.1-0.1-0.1-0.2-0.3-0.5c0.4 0 0.8-0.1 1.1 0.1 0.3 0.2 0.8 0.7 1.2 0.8q1.4 0.3 2.8 0.7-1.3-0.7-2.5-1.4c0.3-0.2 0.7-0.7 1-0.8q0.5 0 1 0c0.2 0 0.3-0.3 0.5-0.4 0.3-0.1 1.1 0.1 1.4 0.3q0.7 0.3 1.5 0.6-0.7-0.6-1.3-1.1 1 0 2.1 0.1c0.5 0 1 0.5 1.4 0.8q-0.1-0.3-0.3-0.7c0.8-0.1 1.8-0.4 2.6-0.4 0.9 0 1.9 0.3 2.8 0.4q-0.7 0.4-1.5 0.8c0.9-0.2 1.7-0.5 2.6-0.3 1.1 0.2 2 0.4 3 0.8-0.7 0.4-1.8 1.2-2.6 1.3q-1.7 0.1-3.4 0.3 0.8 0.1 1.6 0.2-1.4 0.4-2.7 0.8 2.2-0.4 4.4-0.9c-0.1 0.7-2 1.2-2.6 1.6-0.4 0.2-1 0.8-1.5 0.9q-0.8 0.2-1.7 0.4 0.5 0 1.1 0c-0.4 0.4-0.6 0.6-1.1 0.9-0.3 0.1-0.8-0.1-1.2-0.2q0.1 0.2 0.2 0.5c-1 0.2-2 0.3-2.9 0.4 0.4 0.1 1.9-0.1 1.8 0.5q-0.8 0-1.6 0c0.4 0.1 1.6 0.2 1.5 0.7q-0.7 0.1-1.4 0.2 0.4 0.2 0.8 0.5c-0.3 0.5-0.5 0.6-1 0.8-0.3 0-0.9-0.4-1.1-0.2-0.2 0.2 0.5 0.4 0 0.8-0.1 0.1-1 0.7-0.8 1 0.2 0.3 0.2 0.2 0.5 0 0.2-0.1 0.3 0 0.6 0.1 0.1 0.1 0.1 0.5 0.1 0.7 0 0.1-0.4 0.2-0.5 0.2-0.2 0.1-0.3-0.1-0.3-0.1-0.2 0-0.2 0.3-0.4 0.4q-0.7 0.2-1.4 0.4c0.1-0.4 0.3-0.6-0.1-0.8-0.2-0.2-0.4 0.2-0.7-0.1 0 0.6-0.8 0.3-1-0.1 0.1 0.5-0.3 0.3-0.6 0.2-0.3-0.1-0.4 0.3-0.8 0.3-0.3 0-0.7-0.1-1-0.1-0.4 0-0.7 0.2-0.8-0.3-0.2 0.6-0.9 0.2-0.9-0.3-0.3 0.4-0.5 0.7-0.8 0.2 0.3-0.1-0.1-0.3 0-0.5 0.2-0.1 0.6-0.2 0.8-0.3 0.6-0.2 0.8-0.1 1.3-0.6-0.7 0-0.7-0.1-1-0.7 0.5-0.2 0.8-0.2 1.4-0.1 0.4 0.1 0.4 0.7 0.9 0.8 1.1 0.3 1.5-0.3 2.1-1.2-0.3 0.4-1.1 1.4-1.8 0.9-0.9-0.6-0.2-1.1 0.1-1.9-0.4 0.4-0.7 1-1.2 0.9-0.7-0.2-1.4-0.2-0.7-0.9 0.8-0.9 2.3-0.7 3.2-0.2-0.3-0.7-0.8-1.3-1.4-1.7-0.6-0.5-1.8-0.4-1.2-1.5 0 0 1.9 0 2 0.1 0.7 0.1 1.4 0.8 2.1 1.2q-0.8-0.7-1.5-1.3 2.2-0.4 4.3-1-0.4-0.1-0.7-0.2 0.5-0.5 1.1-1c-0.9 0.4-1.5 0.6-2.1 1.3-0.2 0.2-0.9 0.2-1.2 0.2q-0.6 0.1-1.3 0.3 0.4-0.4 0.8-0.7-0.5 0.2-1.1 0.3c0.1-0.1 0.2-0.2 0.3-0.3-0.2 0.1-0.7 0.1-0.7 0.3 0 0.5-0.1 0.4-0.6 0.4-0.5 0-1.1-0.1-1.6-0.2 0.6-0.5 1-0.7 1.8-0.9-0.9 0-1.3 0.1-2 0.6-0.6 0.4-1.3 0-1.9-0.2 0.6-0.3 1-0.3 1.6-0.3 0.7-0.1 1.2-0.3 1.8-0.6-0.6 0.1-1.4 0.4-2.1 0.4-0.7 0.1-1.4 0.4-2 0q0.5-0.5 1.1-1-0.6 0.3-1.2 0.5zm-9.2 7.2c-0.3 0-0.5-0.3-0.1-0.4 0.3 0 0.7-0.1 1 0.3-0.3-0.1-0.6 0.1-0.9 0.1zm17.1 24.4c0-0.2 0.3-0.6 0.6-0.5 0.7 0.2 0 0.9-0.2 1.2-0.3-0.3-0.4-0.3-0.4-0.7zm55 12.6q0.2-0.1 0.4-0.2c-0.2-0.1-0.3-0.1-0.4-0.2 0.2 0 0.4-0.1 0.5-0.3 0.1-0.2 0.6-0.2 0.8-0.2-0.3-0.1-0.7 0-1 0.1q0.4-0.5 0.8-0.8c-0.4 0-0.6-0.1-0.9-0.3 0.1-0.1 0.3-0.3 0.3-0.4-0.1-0.4-0.2-0.4 0.1-0.6 0.2-0.1 0.4 0 0.6 0.1 0.3 0.1 0.4-0.1 0.6-0.3q-0.2-0.1-0.5-0.2c0.3-0.4 0.8-1.1 1.4-0.7q-0.1 0.1-0.2 0.2c0.2-0.1 0.6-0.3 0.8-0.1 0.2 0.2 0.2 0.7 0.5 0.6-0.1 0.6-0.2 0.6-0.7 0.9 0.2 0.3 0.4 0.7 0.3 1.1q-0.1 0.4-0.2 0.8c-0.1 0.3-0.3 0-0.5 0.1-0.7 0.2-1.7 1.3-2.4 0.7 0 0 0.1-0.2 0.2-0.2q-0.3-0.1-0.5-0.1zm-57.7-13.5c0.3-0.3 0.6-0.3 1-0.4q0.3 0 0.5 0c-0.1 0.9-0.8 1.1-1.5 1.2-0.1 0-0.2-0.3-0.2-0.4-0.1-0.3 0-0.2 0.2-0.4zm-8.7-18c-0.3-0.2-1.4-0.6-1.5-0.8-0.2-0.7 1.2-1 1.5-1 0.4-0.2 0.9 0.5 1 0.9 0.2 0.9-0.4 0.8-1 0.9zm-7.9-8.1q-0.3 0-0.7 0c0.3-0.7 0.6-0.5 1.3-0.6 0.6-0.1 0.9 0.3 1.1 0.8 0.3-0.2 1.4-0.6 1.3 0.3 0.4-0.1 0.5-0.2 0.8 0.1 0.2 0.2 0.2 0.2 0.1 0.4 0 0.2 0.3 0.4 0.4 0.6 0.8 0.9-0.8 0.9-1 0.6-0.2-0.3-0.2-0.6-0.6-0.6-0.4-0.1-0.9 0-1.2-0.3-0.2-0.3-1.5 0.9-1.7-0.3 0.4-0.3 1.4 0.2 1.3-0.4q-0.3-0.1-0.6-0.2c0.1 0 0.2-0.1 0.2-0.2-0.3-0.3-0.5 0.3-0.9 0.2 0.1-0.1 0.1-0.3 0.2-0.4zm-0.8 3.1q-0.1-0.3-0.2-0.6c0.3-0.2 0.5 0.1 0.8 0.3q0.2 0.1 0.4 0.4c0.2 0.3 0 0.6-0.2 0.4-0.1-0.2-0.6-0.3-0.8-0.5zm4.6-4.7c-0.4-0.7 0.8-0.8 0.9-0.3 0.4 1-0.4 0.5-0.9 0.3zm1.3 2.6q0.1 0 0.2 0c-0.7-0.8 0.6-0.6 1-0.4 0.2 0.1 0.5 0.4 0.7 0.4 0.2 0.1 0.6 0.1 0.9 0.2-0.4 0.4 0 0.5-0.1 0.7-0.2 0.3-0.7 0.3-0.9 0.3-0.2 0.1-0.5 0.2-0.7 0.2-0.1 0-0.4-0.4-0.6-0.5 0.2-0.1 0.4 0 0.7-0.2-0.4-0.3-1.1 0-1.2-0.7zm-8.9 0.8c-0.2 0.4-0.6 0.4-1 0.5 0.2 0.2 0.7 0 0.6 0.2 0 0.2 0.1 0.3-0.2 0.4q-0.6 0.2-1.3 0.3c-0.3 0.1-0.6-0.3-0.9-0.3-0.1-0.9 0.2-0.8 0.9-0.9 0.6-0.1 1.4-0.4 1.9-0.2zm0.3 2.4c0.8-0.4 0.5 0.6 0.8 0.9 0.2 0.1 0.3 0.5 0.5 0.6 0.3 0.1 0.5 0.2 0.6 0.6 0.3-0.4-0.3-0.7 0.4-0.8 0.7-0.1 0.7 0.4 0.6 0.9-0.1 0.4-0.2 0.8-0.6 0.8q-0.4 0-0.8 0c-0.3 0-0.3 0.3-0.5 0.3-0.3 0-0.5-0.3-0.9-0.2q-0.8 0.4-1.7 0.7c-1.1 0.4-1.5 0.6-2.5-0.1 0.8-0.2 2-0.3 2.6-1-0.3 0.2-1 0.5-1.2 0 0 0.4-0.7 0.3-0.9 0.3 0-0.3 0.2-0.6-0.2-0.7-0.2 0.6-0.2 0.7-0.7 1-0.1-0.4-0.6-0.5-0.4-0.1q-0.3 0-0.6-0.1 0-0.2 0-0.3c-0.4 0.1-0.6 0.1-1.1-0.1 0.3-0.6 1.5-0.3 2-0.7-0.2 0-1.6 0.4-1.6 0-0.1-0.4 1.6-0.3 1.8-0.4-0.4 0-1.1 0.2-1.4 0l-0.1-0.3c0.6-0.3 1-0.2 1.6-0.2-0.2 0-0.9-0.1-0.9-0.3 0-0.2 0.9-0.3 1-0.3 0.6 0.3 0.4 0.5 1.1 0.4 0.4 0 0.8 0.5 1.1 0.7q-0.2 0.1-0.3 0.1c0.5 0 0.6-0.1 0.7 0.5 0 0.2 0.8 0.1 1 0.1 0.4 0 0.9 0.2 0.9-0.2 0.1-0.2-0.7-0.4-0.9-0.5q0.3-0.1 0.6-0.2-0.4-0.3-0.9-0.6c0.4-0.2 0.6-0.5 0.9-0.8zm11.2-6.2q0.2 0.1 0.4 0.2c-0.1-0.1-0.1-0.2-0.2-0.3 0.1 0 0.2-0.1 0.3-0.1-0.3-0.3-0.6 0.1-1 0q0.1-0.1 0.2-0.1c-0.4-0.1-0.6 0-1-0.2q0.4-0.1 0.7-0.3c-0.4-0.4 0.9-0.4 1.2-0.5-0.2-0.2-0.7-0.2-1-0.3 0.4-0.9 1.6 0 1.9-0.6-0.3-0.2-0.7-0.1-1.1-0.2 0.3-0.5 1-0.2 1.4-0.1 0.6 0.1 0.9 0.6 1.4 1.1 0.3 0.4 0.7 0.6 1.1 0.4 0.4-0.1 0.2 0.4 0.3 0.5 0.1 0.3 0.4 0.4 0.7 0.4q-0.2-0.3-0.4-0.6c0.5-0.4 1.3 0.2 0.7 0.6 0.9 0.1 0.7 0.5 0.4 1.2 0.3-0.2 1-0.6 1.1 0.1 0-0.1 0.1-0.2 0.2-0.4 0.2 0.3 0.5 0.5 0.6 0.7-0.4 0.2-1.3 0.7-1.6 0.5 0.2 0.4-0.2 0.5-0.5 0.7-0.1-0.2-0.2-0.5-0.1-0.8-0.9 0.3 0.6 1.6-0.8 0.9 0.2 0.4 0.1 0.5 0 0.9q-0.5-0.5-1-0.9 0.2 0.5 0.5 1c-0.4-0.3-0.6-0.5-1-0.5q0.2 0.1 0.3 0.4c-0.7-0.1-1.6 0.1-2.1-0.6q0.5-0.1 1-0.2c-0.5-0.1-1.3 0.1-1.6-0.4q0.3 0 0.5 0c-0.3-0.1-0.6-0.2-0.9-0.4 1-0.4 2-0.3 3-0.5-0.6 0-1.1 0.2-1.7-0.1q0.6 0 1.1-0.1c-0.3-0.3-1-0.1-1.5-0.2 0.1 0.4-0.2 0.1-0.2 0.1-0.3 0.1-0.4 0.4-0.6 0.2q0-0.1 0-0.2c-0.3-0.1-0.4 0.1-0.6 0.2-0.3 0.2-0.2-0.2-0.5-0.2-0.2 0.1-0.3-0.3 0-0.3 0.3-0.1 0.6 0 0.8-0.4-0.6 0.3-1.6 0.3-1.7-0.6q0.6 0 1.3 0zm-6 7.1c0.1 0.7-1.1 0.6-1.4 0.2 0.2-0.3 1.1-0.3 1.4-0.2zm-12.3 1.2c-0.1 0.2-0.7 0.3-0.8 0-0.1-0.3 1.1-0.8 1.4-0.9 0 0.3-0.4 0.7-0.6 0.9zm88.2 26.5c0 0.3 0.1 0.4 0.4 0.4-0.2 0.5-0.7-0.1-0.9-0.3q0.1-0.1 0.1-0.2 0.1 0.1 0.2 0.2 0-0.1 0-0.3c0.2 0 0.2 0.1 0.2 0.2zm-77.9-23.4c0.3 0.2 0.5 0.3 0.5 0.7 0 0.2-0.2 0.6-0.4 0.7-0.4 0.2-0.5-0.1-0.8-0.3-0.3-0.3-0.3-0.4-0.7-0.5 0.2-0.6 0.9-0.4 1.4-0.6zm0.4-2.6c0.4-0.2 0.7-0.3 0.9 0.3-0.3 0.1-1.5 0.4-0.9-0.3zm0.8-2.3q0.3 0.2 0.5 0.3c-0.2 0.4-0.7 0.3-1.1 0.2 0-0.2-0.1-0.2-0.2-0.5 0.3-0.1 0.5-0.1 0.8 0zm5.8-1.9c0.8-0.4 1.6-0.3 2.5-0.1q-0.2 0.3-0.4 0.5c-0.5 0-1.9 0.2-2.1-0.4zm12.4 7.7c-0.5-0.2-0.4-0.9 0.1-1q0.5 0.2 0.9 0.3c0.3 0.1 0.6-0.1 0.9 0.1 0.7 0.3 1.1 0.6 1.6 1.3-0.4-0.1-0.9-0.2-1.3-0.1-0.3 0.1-1.1 0.5-1.4 0.3-0.1-0.1-0.4-0.2-0.5-0.3-0.2-0.3 0.1-0.4-0.3-0.6zm-7.1-7c-0.3 0.1-0.5 0.2-0.8 0.1-0.1-0.1-0.7-0.3-0.4-0.6 0.3-0.3 1.2-0.1 1.2 0.5zm-0.2 1.1c0 0.1 0 0.2 0.1 0.3-0.2 0.1-0.9-0.3-0.6-0.5 0.2-0.2 0.8 0 0.5 0.2zm185.5 2.6c-0.1-0.5 0.9-1 0.9-0.2 0.3-0.3 0.7-0.2 1.2-0.2-0.1 0.1 0 0.3-0.1 0.4 0.5-0.2 0.7-0.3 1.2-0.1 0.1 0 0.6 0.1 0.6 0.2 0 0 0 0.5-0.1 0.5-0.9 0.3-1.5 0.4-2.4 0.3-0.2-0.1-1.2-0.6-1.3-0.9zm-74.2 5.4c0-0.5 0.5-0.3 0.7-0.7 0.2-0.5-0.2-0.5 0.3-0.8 0.1-0.1 0.9-0.6 0.9-0.8-0.1-0.4-0.3-0.6 0-0.9q0.5-0.6 1.1-1.2c0.5-0.6 1.1-1.1 1.6-1.6 0.5-0.4 1.5-0.6 2.1-0.9 0.8-0.3 1.4-0.3 2.3-0.4 0.9-0.2 1.7-0.3 2.5-1 0.4-0.2 2.3-0.7 2.2 0.3-0.1 0.9-2 1.2-2.4 1.3-1 0.4-1.9 0.6-2.8 0.9-0.8 0.3-1.3 0.8-2 1.3-0.3 0.2-0.9 0.4-1.2 0.8q-0.4 0.5-0.9 1.1c-0.5 0.6-1.4 1.4-1.4 2.4 0 1.1 0.7 1.6 1.6 2.2-0.6 0.5-1.8 0.1-2.4 0-0.7 0-1.3-0.4-1.8-0.9-0.4-0.4-0.5-0.5-0.4-1.1zm1.5-14.5q-0.5 0-1.1-0.1c0.8-0.6 0.8-0.7 1.7-0.3q-0.3 0.2-0.6 0.4zm2.9-2.1q-0.7-0.1-1.3-0.2 0.7-0.4 1.4-0.9c0.6-0.4 0.8-0.3 1.5-0.2q-0.6 0.2-1.2 0.4 0.3 0.2 0.6 0.5-0.5 0.2-1 0.4zm1.4 19.1c0.2 0.1 1.4 0.7 1 1.1-0.3 0.3-1.3-0.6-1.4-0.9q0.2-0.1 0.4-0.2zm0.2-16.6c-0.1 0-0.2-0.2-0.3-0.3 0.3 0 0.6-0.3 0.8 0.1q-0.2 0.1-0.5 0.2zm-2.7-1.3q-0.7-0.3-1.5-0.5c0.5-0.6 0.8-0.5 1.6-0.5 0.5 0 1 0.2 1.6 0.4-0.6 0.4-1 0.4-1.7 0.6zm-7.5 0.2q-0.5-0.1-1-0.3c1-0.3 1.7-0.6 2.7-0.3 0.4 0.1 0.9-0.1 1.3-0.3 0.5-0.1 0.8 0.1 1.2 0.4q-1.1 0.3-2.2 0.5 0.1 0.4 0.2 0.7c-0.7 0-1.2-0.1-1.9-0.3q0.6-0.4 1.1-0.8-0.7 0.2-1.4 0.4zm2.1 19.1c0.4 0.2 0.6 0.2 1 0.5-0.2 0.2-1 0.9-1.3 0.6-0.5-0.5-0.3-0.8 0.3-1.1zm-21.3-1.4c0.2 0 0.6 0.1 0.9 0 0.2-0.2 0.2-0.5 0.6-0.5-0.5 0.6-1 0.8-1.8 0.9 0.3 0 0.4-0.1 0.3-0.4zm-106.2-13.4q-0.1-0.1-0.2-0.2c0.3-0.4 1.2-0.5 1.7-0.6 0.3-0.1 1.4-0.1 1.5 0.3 0.2 0.7-1.2 0.2-1.5 0.2-0.3 0.1-0.2 0.4-0.6 0.1-0.3-0.1-0.6 0.1-0.9 0.2zm135.6-4.1q-0.4 0.1-0.8 0.2c0.1 0 0.1 0.2 0.2 0.2-0.5 0.1-1.9 0.6-2.1 0-0.2-0.6 1.9-0.7 2.1-0.7q0.3 0.2 0.6 0.3zm61.1 9.2c0.2-0.7 0.4-0.8 0.9-1.2 0.6-0.5 1.7 0.6 2.3 0.9-0.1-0.5-0.2-0.8 0.2-0.9 0.2-0.1 0.5 0.1 0.7 0.2q1.2 0.4 2.5 0.9c-0.2 0.3-0.5 0.4-0.8 0.6-0.3 0.2-0.5 0.1-0.8-0.1q0.1 0.3 0.3 0.5-0.5 0.1-0.9 0.2c-0.2 0.1-0.4-0.5-0.6-0.5-0.6 0.3-1.2 0.8-1.6 0.2-0.2 0.5-0.2 0.5-0.8 0.6-0.3 0-0.6-0.3-0.9-0.5-0.2-0.2-0.6-0.5-0.5-0.9zm-112.8 28.4c0-0.1 0.1-0.2 0.2-0.2q0.2 0.3-0.1 0.4c-0.1-0.1 0.1-0.2-0.1-0.2zm114.9-24.9q0.5-0.3 0.9-0.6c-0.2-0.2-0.9-0.6-0.3-1 0.5-0.3 0.8 0.1 0.8 0.5 0 0.1 0.9 0.4 1 0.5 0.5 0.3 0.5 0.3 0.7 0.9-0.7 0-1 0.2-1.5-0.3-0.4-0.3-1.2 0-1.6 0zm-60.2-13.3c-0.2-0.1-0.3-0.2-0.4-0.4 0.3-0.6 0.7 0 1.2-0.2 0.1-0.1 0.1-0.4 0.3-0.5 0.1-0.2 0.5-0.1 0.7-0.1 0 0.5 0.2 0.7-0.3 0.8q-0.8 0.2-1.5 0.4zm-3.1-0.2c0.5-0.3 1-0.4 1.6-0.6 0.4-0.1 1.1 0.5 0.8 0.8-0.3 0.4-1.1 0.9-1.4 0.5-0.2-0.2-0.4-0.1-0.7-0.1-0.2 0-0.2-0.3-0.3-0.6zm32 4.8c0.3-0.6 0.7-1.2 1.1-1.7 0.5-0.5 1-0.5 1.6-0.3q-0.2 0.2-0.4 0.4c0.2 0 0.8-0.2 0.9 0 0.3 0.3 0.4 0.5 0.9 0.6 0.2 0 0.5 0.5 0.4 0.7-0.3 0.2-0.5 0.3-0.8 0.4q-0.7 0.1-1.4 0.2c-0.2 0-0.5-0.3-0.7-0.2-0.5 0.2-1.6 0.9-2 0.3q0.2-0.2 0.4-0.4zm-7-3.1c0.1-0.2 0.3-0.9 0.4-0.9 0.2-0.1 0.9-0.2 0.9-0.3 0.2-0.6 0.1-0.7 0.6-0.8q0.6-0.2 1.2-0.4c0.3-0.1-0.1-0.5 0.5-0.4 0.5 0 1.4 0.9 1.8 1.2-0.7 0.2-0.7 0.1-0.6 0.8 0.1 0.4 0.8 0.4 1.1 0.4q-0.3 0.4-0.6 0.7c0.6-0.2 1-0.5 1.6-0.2 0.3 0.2 0 0.5-0.1 0.8-0.1 0.2 0.1 0.7 0.2 0.9-0.7 0.2-1 0.3-1.6 0.1-0.7-0.3-1.1-0.3-1.8-0.2-0.7 0.1-0.9-0.6-1.3-1.1-0.3-0.4-1.2-0.1-1.7-0.1-0.1-0.1-0.7-0.4-0.6-0.5zm69 16.2c0-0.2-0.3-1-0.2-1.1 0.3-0.1 0.8-0.4 1.2-0.4q0.7 0 1.4 0c0.4 0.1 0.6 0.4 0.9 0.6-0.5 0.5-1 0.5-1.7 0.7-0.2 0-0.4-0.1-0.6-0.1q-0.5 0.2-1 0.3zm-127.9 2.4q-0.2 0.2-0.4 0.3c-0.1-0.4 0.2-0.4 0.5-0.5q0 0.1-0.1 0.2zm-1.9 1.3q0.2-0.2 0.4 0c-0.1 0.2-0.2 0.3-0.4 0.2q0-0.1 0-0.2zm1.1-0.5q-0.3 0-0.5-0.1 0.2-0.3 0.5-0.5c0.3 0.2 0.3 0.4 0 0.6zm-14.4 13.6q-0.1-0.1-0.1-0.2c0-0.1 0-0.4 0.3-0.2q-0.1 0.1-0.1 0.1c0.1 0 0.2 0 0.3 0-0.1 0.1-0.2 0.2-0.4 0.1q0 0.1 0 0.2zm19.8-16.9c0.2 0 0.4 0 0.7 0.1 0.3 0.1 0.2-0.1 0.5-0.2 0 0.2-0.2 0.3-0.4 0.5-0.3 0-0.7 0.1-0.8-0.4zm-21.8 18.4q0.1 0 0.2 0c-0.1-0.1-0.1-0.3-0.2-0.4q0.3-0.1 0.6 0c-0.1 0-0.2-0.2-0.3-0.3q0 0 0-0.2 0.2 0 0.3 0c-0.1-0.3 0.2-0.6 0.2-0.2 0.3-0.2 0.1-0.1 0.3-0.1 0.3-0.1 0.8-0.2 1.1-0.2-0.1 0.6-0.8 0.6-0.8 1q-0.1 0-0.3 0c0.1 0 0.3 0.1 0.4 0.1-0.1 0.1-0.2 0.2-0.3 0.3l0.1 0.1c0.1-0.3 1.6-0.5 1.8-0.2 0.3 0.5-0.9 1.2-0.7 1.8-0.2-0.1-0.4 0-0.5 0.2 0.8 0.1 1.2 0.2 1.5 1.2 0.3 0.7 1 0.8 1.2 1.7-0.1-0.2-0.3-0.2-0.6-0.1 0.4 0 1.1 0.6 0.6 0.9 0.2 0.1 1.4-0.4 1.3 0.4-0.1 0.7-0.4 0.9-1 1.3 0.3 0 1.3 0.2 0.6 0.5-0.5 0.2-0.9 0.2-1.4 0.3-0.3 0.1-0.3-0.2-0.6-0.2-0.2 0-0.6 0.3-0.8 0.4-0.6 0.3-0.7-0.4-1.1 0.4-0.6-0.4-1 0.5-1.5 0.2 0.3-0.3 0.8-0.6 0.9-0.9 0.2-0.6 0.7-0.4 1.2-0.4 0-0.2 0.2-0.3 0.3-0.5q-0.4 0.1-0.7 0.2c-0.1 0.1-0.5-0.2-0.6-0.2q0.1 0 0.1-0.1c-0.3-0.2-0.6 0.4-0.9 0 0 0 0-0.2 0-0.2 0.2-0.1 0.7-0.2 0.9-0.4 0.2-0.3 0-0.4 0-0.8q-0.2 0.1-0.5 0.1c0.3-0.2 0.4-0.4 0.1-0.7 0.2 0 0.4 0 0.5 0.2 0.2-0.1 0.4 0 0.7 0q0-0.1-0.1-0.2c0.2 0.1 0.1 0 0.3 0.2l0.1-0.1c-0.3-0.1-0.3-0.7-0.1-1-0.5 0.3-0.8-0.8-0.1-1-0.4 0-0.8 0.4-1.1 0.2 0.1 0.3-0.2 0.1-0.4 0q0 0.1 0 0.3c-0.4-0.4-0.1-0.4 0.1-0.8 0.1-0.3 0-0.2 0-0.5-0.1-0.2-0.1-0.3 0.1-0.3 0-0.1-0.1-0.3-0.1-0.3-0.3 0.5-0.6 0.2-0.2-0.1-0.3 0.1-0.3 0.4-0.3 0.7-0.1 0.2 0 0.7-0.3 0.5-0.1-0.1 0-0.2 0.1-0.4 0.1-0.3 0-0.3 0-0.5 0.1-0.3 0.2-0.7 0.5-0.9q-0.1 0-0.1-0.1c-0.2 0.2-0.4 0.5-0.6 0.3 0.4 0.3-0.1 0.5-0.3 0.3 0.3-0.1 0.3-0.2 0-0.3 0.1-0.1 0.3-0.2 0.3-0.3 0.1-0.2 0.2-0.4 0.3-0.6q-0.1 0-0.2 0 0.1-0.1 0.2-0.1c-0.2 0-0.3 0-0.2-0.2zm-0.1 1.2q0 0 0 0 0 0 0 0zm0.5 5.8q0 0 0 0 0 0 0 0zm0.7-7.4q0 0 0 0 0 0 0 0zm14.7-14.1c0-0.5 0.3-0.4 0.7-0.4q-0.3 0.2-0.7 0.4zm-15.3 17.1q-0.1-0.1-0.2-0.3 0.3 0 0.2 0.3zm-0.5-0.8q0 0.2-0.1 0.4c-0.2-0.3 0-0.4 0.1-0.4zm1 2.5q-0.1 0-0.2-0.1 0-0.3 0.3-0.4 0.1 0.3-0.1 0.5zm17-19.9q0.3-0.3 0.6-0.6-0.4 0.5-0.9 1c-0.1-0.3 0-0.4 0.3-0.4zm1.3-1q-0.2 0-0.5 0c0.2-0.2 0.4-0.3 0.5-0.5 0.4 0.1 0.2 0.3 0 0.5zm-0.5 0.2c-0.2 0.1-1 1-0.9 0.4 0-0.5 0-0.4 0.3-0.5 0.3-0.1 0.5-0.2 0.6 0.1zm0.9-0.6q-0.2 0-0.3-0.1c0.1-0.3 0.4-0.3 0.7-0.2q-0.2 0.3-0.4 0.3zm-2.1 1.9c-0.3-0.1-0.4 0-0.5 0.2-0.2 0.3-0.4 0.2-0.7 0.1 0.2-0.2 0.2-0.1 0.2-0.4q0.1 0 0.2 0c-0.1-0.2 0.1-0.4 0.3-0.4q0 0.2-0.1 0.5c0.3-0.1 0.2-0.4 0.4-0.5 0.2-0.1 0.3 0.3 0.2 0.5zm-1.4 1.6c0.1 0 0.1-0.2 0.2-0.3-0.2 0-0.1-0.1-0.2-0.1 0.2-0.1 0.5-0.2 0.4-0.5 0.1 0.5-0.1 0.6-0.4 0.9zm0 0q0 0 0 0 0 0 0 0zm1.3-1.5q-0.4 0.4-0.7 0.8c-0.1-0.1-0.1-0.3-0.1-0.4 0.1 0 0.2 0 0.3 0 0.1-0.2 0.3-0.4 0.5-0.4zm2.4-1.8q-0.2 0.1-0.4 0.1c0.2-0.3 0.8-0.7 1.1-0.4q-0.3 0.1-0.7 0.3zm0.8-0.5q-0.1-0.1-0.1-0.3c0.1 0 0.2 0 0.3 0 0.1 0.3 0 0.4-0.2 0.3zm40.2-5q-0.7 0.1-1.4 0.2c0.1-0.5 0-0.7 0.5-0.8 0.4 0 0.7 0.1 0.9 0.6zm46.6 47.5c0.6 0 1.1-0.3 1.4-0.9 0.4-0.4 1.3-0.3 1.9-0.4 0.2 0 0.1 0.4 0.5 0.2 0.3-0.2 0.1-0.4 0.2-0.6 0.2-0.2 0.6-0.5 0.6-0.8 0-0.5 0.1-0.4 0.6-0.6-0.1 0.1-0.5 0.6-0.2 0.6 0.3 0 0.6-0.1 0.9-0.3 0.4-0.2 0.8-0.7 0.9-1.2q0.2-0.6 0.4-1.2c0-0.2-0.3-0.3-0.2-0.6 0.1-0.3 0.6-1.6 0.9-0.6-0.1-0.5 0.1-0.8 0.5-0.6 0 0.3-0.2 0.5 0 0.8 0.1 0.2 0.4 0.6 0.4 0.8-0.1 0.4 0.1 0.7-0.2 0.9-0.3 0.2-0.2 0.4-0.2 0.8-0.5-0.3-0.4 0.3-0.4 0.6 0 0.5-0.2 0.6-0.3 1 0 0.2 0.1 1 0 1-0.3 0.2-0.4 0.5-0.7 0.7q0-0.3 0.1-0.6c-0.3 0.2-0.5 0.5-0.7 0.8q-0.1-0.2-0.2-0.5c-0.4 0.6-1.1 0.8-1.5 0.2-0.3 0.3-0.2 0.5 0 0.8-0.4-0.1-0.7 0.5-0.9 0.8-0.4-0.4-0.8-0.7-0.2-1.2-0.4-0.1-1-0.3-1.2 0-0.1 0.1-0.5 0.2-0.7 0.3-0.2 0.1-0.4 0.3-0.6-0.1-0.2 0.8-0.6 0.2-1 0.6 0.2 0.3 0.4 0 0.6 0.3 0 0.1 0.3 0.5 0.2 0.6-0.2 0.6-0.4 1.3-0.9 1.6-0.7 0.5-0.6-0.7-0.4-1.1 0.1-0.1 0.4-0.7-0.1-0.8-0.3 0 0.1 0.6-0.4 0.5q-0.1-0.3-0.1-0.6c0.4-0.3 1.2-0.5 1-1.2zm-1.7 29.3c-0.1 0.1-0.2 0.3-0.2 0.4 0.4 0.1 0.3 0.5 0 0.6-0.4 0.1 0.3 0.6 0.4 0.7-0.7-0.3-0.5 0.5-0.5 0.9-0.1-0.1-0.6-0.4-0.5-0.6 0-0.3 0-0.6-0.1-0.9-0.1-0.3-0.2-0.4 0-0.8 0.2-0.3 0.6-0.6 0.8-0.8 0 0.2 0.1 0.4 0.1 0.5zm19 24.1c0.1 1.1 0.5 2.3 0.5 3.4-0.1 1.1-0.6 2.4-0.9 3.5-0.2 0.9-1.2 1.6-1.4 2.5-0.2 1.1-0.1 2.8-1.3 2.8-0.8 0-0.9 0.1-1.4 0.6-0.3 0.3-0.9 0.5-1.2 0.2-0.5-0.6-0.4-0.8-1.1-0.3-0.5 0.4-0.6 0.4-1.3 0.2-1.1-0.1-2-0.5-2.2-1.7-0.1-0.4-0.4-1.3-0.8-1.3-0.5 0-0.4-1.1-0.4-1.5-0.4 0.7-0.3 1.1-1.1 1 0.5-0.8 1.1-1.5 0.8-2.4-0.5 0.9-1 1.5-1.7 2.2-0.3-0.4-0.5-0.9-0.8-1.3-0.4-0.7-0.4-0.9-1.1-1.1-1.2-0.5-2.2-0.6-3.4-0.7-0.3-0.1-0.9 0.5-1.2 0.6-0.4 0.3-1-0.1-1.4 0.1-0.4 0.2-1.1 0.4-1.3 0.8-0.1 0.1-0.2 0.7-0.4 0.7q-0.5 0-1.1 0c-0.5 0-1 0.1-1.5 0.1-0.7 0.1-0.8 0.3-1.4 0.8-0.3 0.4-0.9 0.2-1.4 0.2-0.5 0-0.9-0.5-1.3-0.8-0.4-0.4 0.5-0.9 0.6-1 0.1-0.4-0.3-1.6-0.3-2-0.2-1.2-0.5-2.2-1-3.2-0.2-0.4-0.5-0.8-0.3-1.2 0.2-0.7 0.2-0.8 0-1.4-0.4-1.1-0.2-1.9 0.3-3q0.1 0.4 0.3 0.8c0.3-0.8 0.4-0.9 1-1.4 0.5-0.4 0.8-0.6 1.4-0.8q1.3-0.2 2.6-0.5c0.6-0.2 0.6-0.7 0.9-1.4 0.4-1.3 1.8-2 2.8-2.9 0.2-0.1 0.9-1 1.1-0.9q0.9 0.5 1.9 1c0.2-0.8 0.3-1.4 0.7-2 0.5-0.7 1.1-0.3 1.8-0.2q0-0.5-0.1-0.9c0.7 0 1.3 0.1 1.9 0.1 0.9 0.1 1 0.2 1.6 0.8-0.4 0.4-0.7 0.7-0.8 1.3-0.2 0.7-0.5 1 0.2 1.3q0.9 0.6 1.9 1.2c0.4 0.2 0.7 0.8 1 0.9 1 0.4 1.4-1.9 1.4-2.6 0-0.6-0.2-1.3 0-1.8 0.1-0.6 0.2-1.6 0.8-1.8 0.5 1.2 0.8 2.1 1 3.4 0.4-0.3 1-0.1 1.1 0.5 0 0.9 0 1.1 0.5 1.7 0.4 0.5 0.2 1.1 0.2 1.7 0 0.3 1.5 0.9 1.7 1 0.5 0.3 0.5 0.7 0.7 1.3q0.1 0.5 0.3 1c0.1 0.3 0.4-0.2 0.5-0.2 0.7 0.3 0.1 0.8 0.6 1.3q0.7 0.6 1.5 1.3zm-20.1-19.1c-0.2 0-1.3 0.4-1.1-0.4 0.2-0.4 1.1 0 1.1 0.4zm3.1 7.1c-0.3 0.2-0.7 0-1 0 0.1-0.8 0.5-0.2 0.9-0.5 0.4-0.1 0.3 0.3 0.1 0.5zm16.8-6.4c0.2-0.9-1.6-1.2-1.4-1.7 0.4 0.3 0.8 0.5 1.2 0.8 0.1 0.1 0.1 0.3 0.2 0.4 0.1 0.1 0.2-0.1 0.2 0 0.3 0.4 0.2 0.4 0 0.8 0-0.1-0.1-0.2-0.2-0.3zm-4.6 36.5c-0.7-0.1-1.1-0.3-1.4-1.1-0.2-0.6-0.3-1.4-0.2-2q0.6 0.2 1.3 0.5c0.2 0.1 0.9-0.3 1.1-0.4 0.9 0.3 0.1 3.2-0.8 3zm2.6-35.9c-0.3 0.8 1.1-0.2 1.1-0.2 0-0.2-0.1-1 0.4-0.7 0.3 0.2 0.6 0.7 0 0.8 0.4 0.4-0.3 0.4-0.3 0.5-0.2 0.4-0.6 0.5-1 0.6-0.5 0.1-1.4-0.1-1.6-0.6 0.3-0.1 0.6-0.1 0.9-0.1 0.3 0 0.5-0.4 0.5-0.3zm-1.8 1.3q-0.3 0.1-0.7 0.1c0.1 0.2 0.1 0.6 0.3 0.7 0.1 0.1 0.5 0.2 0.5 0.4 0.4 0.7 0.3 0.9 1.1 0.9-0.2 0.5 0.2 0.4 0.5 0.5-0.3 0.2 0.3 0.7 0.5 0.9-0.2 0.1-0.7-0.3-1.1-0.4-0.5 0-0.9 0-1.3-0.4q-0.6-0.7-1.3-1.4c-0.2-0.2-1.2-0.2-1.5-0.2-0.3-0.1-0.4 0.8-0.7 1-0.5 0.3-1 0.2-1.6 0.2-0.4-0.1-0.6-0.9-0.9-0.9q-0.8 0.1-1.6 0.2c0.1-0.9 0.1-0.8 0.9-1q-0.3-0.7-0.7-1.5c-0.1-0.3-0.7-0.4-1-0.5q-0.9-0.4-1.8-0.8c-0.6-0.2-0.6-0.2-0.7-0.8q-0.3 0.4-0.6 0.8-0.4-0.7-0.8-1.3c0.6-0.1 1-0.2 1.5 0 0.1-0.1 0.1-0.3 0.1-0.4-0.5 0-1 0.1-1.5-0.1-0.1-0.1 0-0.5-0.1-0.5q-0.4-0.1-0.8-0.1c0.4-0.8 1.1-0.9 1.9-0.8 0.4 0.1 0.6 0 0.6 0.6 0.1 0.5 0.2 0.8 0.4 1.2 0.1 0.5 0.3 0.5 0.7 0.7 0.1 0 0.6-0.8 0.7-0.9 0.3-0.4 1-0.7 1.4-0.6q1.4 0.6 2.7 1.1c0.6 0.2 1.3 0.3 1.8 0.6q0.5 0.4 1.1 0.7c0.3 0.2 0.1 0.7 0.4 0.9 0.4 0.5 1.7 0.1 1.6 1.1zm-4.8-55.2c0.1-0.4 0.3-1 0.2-1.4-0.1-0.3-0.2-0.3 0.1-0.5 0.2-0.2 0.3 0.1 0.4-0.1 0.3-0.2 0.1-0.7-0.2-1 0.7-0.5 0.5 0.6 0.7 1 0.4 0.8-0.2 1.1-0.1 1.9 0.1 0.2 0.3 0.4 0.4 0.7q0.1 0.5 0.3 1c0.2 0.8 0.3 1.3 0.7 2-0.5 0-0.4-0.8-0.9-0.7-0.7 0.1-0.6 0.3-0.8 1.1-0.2 0.5 0 0.6 0.2 1.1 0.3 0.4 0.7 1 0.4 1.4 0-0.3-0.2-0.8-0.6-0.8-0.4 0.1-0.4 0.6-0.5 1-0.3-0.6-0.1-0.8-0.1-1.4-0.1-0.2-0.2-0.5-0.1-0.7 0.2-0.3 0.2-0.3 0.1-0.7-0.1-0.7-0.3-0.7 0-1.3 0.2-0.5 0.2-1 0.2-1.6 0.4-0.4-0.4-0.6-0.4-1zm-13.7 40.6c0.4 0 0.2 0.6-0.2 0.5-0.4-0.1 0-0.4 0.2-0.5zm-0.2-1q0 0 0.1 0c-0.1 0.2 0 0.6-0.1 0.8-0.3 0.2-0.5 0.5-0.5 0.9-0.1-0.6 0.3-1.2 0.5-1.7zm0.9 1.1q-0.1-0.2-0.1-0.4c0 0.2 0 0.3 0 0.4-0.4-0.2-0.1-1-0.5-0.7-0.1-0.2-0.1-0.4-0.1-0.6 0.2 0.2 0.4 0.2 0.6 0.1-0.1 0.4 0.3 0.9 0.1 1.2zm-1.6-1.7q0.2-0.2 0.1-0.6c0.4 0 0.3 0.4 0.6 0.4 0.1 0.1 0 0.3 0 0.5q-0.3-0.2-0.4-0.5-0.2 0.1-0.3 0.2zm0 0.1q0-0.1 0-0.1 0 0 0 0.1zm1.9-0.3c0 0.5 0.1 1.4-0.4 0.7-0.2-0.2 0.1-0.2-0.2-0.4-0.2-0.2-0.4-0.3-0.4-0.6 0.4 0 0.8-0.2 1 0.3zm-2.5 0.3c0.5 0.2 0.7 0.3 1 0.8 0.1 0.2-0.3 0.8-0.3 1.1 0 0.3 0.1 0.6-0.1 0.6-0.3 0.1-0.2-0.2-0.4-0.3-0.5-0.2 0-0.7 0.3-1-0.9 0.4-0.8-0.2-0.9-1.1 0.1 0 0.3-0.1 0.4-0.1zm-2.1 10.3c0.2-0.5 0.3-0.7 0.8-1 0.4-0.3 1 0.1 1.4 0.2 0.3 0.1 0.2 0 0.5 0 0.2 0 0.5 0.2 0.6 0.1 0.4-0.2 0.7-0.8 1-0.8-0.2 0.8-0.7 1.7-1.6 1.2-0.4-0.2-0.9 0-1.3 0-0.3 0-0.7-0.3-0.9 0-0.5 0.6 0.2 2 0.9 1.2 0.2-0.3 0.1 0 0.4 0 0.2-0.1 0.2-0.2 0.5-0.2 0.3 0 0.8-0.4 0.6 0.2-0.6-0.4-0.9 1-1.6 0.8 0.2 0.2 0.4 0.2 0.5 0.5q0.2 0.3 0.3 0.5c0.1 0.2-0.2 0.4-0.1 0.5 0.1 0.3 0.7 0.1 0.4 0.6 0.1-0.2-0.6 0.4-0.5 0.4-0.3 0.1-0.6 0-0.5-0.4 0.1-0.4-0.3-0.3-0.4-0.7-0.1-0.1 0.2-0.8-0.1-0.8-0.7 0.1-0.2 0.3-0.3 0.7 0 0.3 0.1 0.7 0 1 0 0.1-0.1 0.3-0.1 0.4-0.1 0.1 0.1 0.4 0.1 0.5-0.1 0.2-0.8 0.1-0.9 0-0.1-0.2 0.2-1.1 0.2-1.4 0.1-0.5-0.3-0.2-0.5-0.5-0.3-0.4-0.2-0.5 0.1-0.9 0.1-0.4 0.1-0.6 0.2-1 0.1-0.4 0.6-0.6 0.3-1.1zm1.9 4.2q0 0 0 0 0 0 0 0zm0.5-0.4q0 0 0 0 0 0 0 0zm-1.4-15.5c0.6 0.3 0.6 0.6 0.2 1.2q-0.4-0.6-0.7-1.2 0.3 0 0.5 0zm-4.3 19.2c-0.3 0.4-0.6 0-0.6-0.4 0.3-0.1 0.9 0 0.6 0.4zm20.3-47.5c0.2-0.2 0.2-0.4 0.1-0.6 0-0.3 0.4-0.5 0.3-0.7 0-0.3-0.2-1.7 0.2-1 0.4 0.5 0.7 1 1.2 1.2 0.7 0.4 0.8 0.6 1.4 0 0.1 0.3-0.6 1.1 0.3 1-0.3 0.4-0.7 0.5-1.1 0.5-0.2 0-0.5 0.2-0.6 0.3-0.1 0.1-0.3 0.7-0.2 0.7-0.3 0.1-0.9-0.4-1.1-0.6-0.2-0.2-0.5 0.1-0.7 0.1-0.1 0.1-0.4-0.2-0.6-0.1-0.1 0.5 0.4 0.3 0.6 0.6 0.1 0.2-0.1 0.2-0.3 0.2-0.1-0.1-0.3 0.3-0.4 0.3-0.1 0-0.4-0.9-0.3-1 0-0.3 0.1-0.3 0.4-0.5 0.1-0.1 0.1-0.4 0.1-0.6q0.4 0.1 0.7 0.2zm-102.9-13.7c0.3 0.1 0.3 0.5 0 0.5-0.2 0.1-0.5-0.4-0.5-0.6 0.2-0.1 0.4-0.2 0.5 0.1zm18.6 22.2c-0.2 0-1.8 0.5-1.4-0.3 0.1-0.3 0.7-0.1 0.9-0.1 0.2 0 0.6-0.3 0.9-0.4-0.3 0.2-0.6 0.4-0.4 0.8zm-8.3-0.4c0-0.1 0.1-0.3 0.2-0.4 0.4 0.3 0.6 0.4 1.1 0.3 0.3 0 0.9 0.1 0.8 0.4-0.8 0-1.3-0.1-2.1-0.3zm-9.6-22.4c0.1-0.1 0.2-0.1 0.3 0q-0.2 0.3 0.2 0.3c-0.5-1 1.2 0 0.1 0.2 0.1 0 0.2 0.2 0.3 0.2-0.5 0.1-0.4 0.5-0.5 0.9 0-0.4 0-0.7-0.3-0.6-0.3 0-0.3-0.4-0.3-0.6q0.3-0.2 0.2-0.4zm8.4-2.4c0.1-0.4 0-0.5-0.2-0.7 0.5-0.2 0.7-0.3 1.3-0.1-0.4 0.3-0.9 0.4-1.1 0.8zm-10.9 19.1q0.1 0.1 0.2 0.1c0.2-0.1 1.2-0.6 1.1 0.2q-0.1 0.6-0.2 1.2c0 0.4-0.4 0.2-0.4 0.4 0 0.4-0.2 0.4-0.5 0.1-0.3-0.2 0-0.3 0.1-0.6 0-0.1-0.2-0.2-0.2-0.3 0-0.1 0.2-0.3 0.2-0.4 0-0.4-0.5-0.2-0.3-0.7zm144-26.1c-0.2 0.7-0.7 0.5-1.1 0.1-0.2-0.4-0.8 0.1-1.3-0.2-0.1-0.1-0.3-0.5-0.1-0.6 0.1-0.1 0.8 0 1 0 0.5 0 1.1 0.5 1.5 0.7zm-135.4 7c-0.2 0.2-0.4 0.4-0.2 0.7q-0.3 0.1-0.6 0.5c-0.1-0.6 0-1.4 0.8-1.2zm0.9-3q-0.1 0-0.1 0 0 0.2 0 0.3c-0.6-0.4 0-0.8 0.1-0.3zm-8.7 20.4c0.1-0.2-0.1-0.4 0.1-0.4 0.1 0.6 0.1 0.9-0.1 1.6-0.3 0-0.8-0.5-0.5-0.8 0.1-0.1 0.4-0.2 0.5-0.4zm115.4 44.9c0.2 0.6-0.5 0.3-0.7 0.1-0.1-0.1 0-0.3-0.2-0.4-0.1-0.2-0.1-0.4-0.1-0.7 0.3 0.1 0.3 0.5 0.5 0.6 0.1 0.1 0.3 0.2 0.5 0.4zm-18.4-35.1c-0.2-0.7 0-0.6 0.3-1.2 0.2 0.1 1.5-0.7 1.4 0.3 0 0.1-0.3 0.4-0.4 0.5-0.1 0.1-0.2-0.3-0.3-0.2-0.4 0.2-0.5 1-1 0.6zm-2.6 31.9c0.5 0.1 1.4 0.2 1.3 1-0.4-0.3-0.6-0.4-1.1-0.3-0.1 0-0.3-0.1-0.5-0.2-0.1 0-0.1 0.3-0.2 0.3-0.2 0.1-1 0.1-0.6-0.4 0.3-0.4 0.7-0.3 1.1-0.4zm35.2 35.2q0.1 0.5 0.2 0.9-0.4 0.7-0.9 1.3c-0.4 0.4-0.3 0.5-0.1 1q-0.3-0.1-0.3-0.4c-0.7 0.5-1 0.6-1.2 1.4-0.1 0.6-0.7 1.2-1 1.7-0.2 0.5-1.2 0.1-1.5-0.2-0.1-0.2-1.5 0-1-0.6q0.6-0.9 1.3-1.8c0.1-0.2 0.6-0.3 0.8-0.4 0.3-0.1 0.5-0.4 0.7-0.6 0.2-0.1 0.6-0.4 0.7-0.6 0.2-0.2 0.2-0.7 0.3-0.9 0.3-0.3 0.4-0.1 0.5-0.6 0.1-0.4 0.2-0.4 0.6-0.6 0.1 0.3 0.3 0.5 0.3 0.9q0.3-0.3 0.6-0.5zm-5.1 6.7c0.2-0.2 0.1-0.5 0.3-0.6 0.7 0.5 0 0.4-0.3 0.6zm8.2-8.8c-0.1 0.1 0.1 0.4-0.1 0.3-0.2-0.1-0.7-0.1-0.6 0.3 0 0.6-0.5 1.2-0.8 1.7-0.3 0.6-0.7 0.4-1.1 0.1 0.2-0.2 0.7-0.8 0.5-1.2-0.1-0.1-0.5-0.2-0.6-0.2-0.2-0.1-0.4-0.4-0.6-0.5 0.5-0.4 0.6-0.5 0.8-1.1 0.2-0.4-0.1-0.8 0-1.3-0.4 0.2-0.8-1.2-0.9-1.6q-0.1 0.1-0.2 0.2-0.3-0.6-0.5-1.1c0.3 0.1 0.4 0.4 0.8 0.6 0.6 0.2 0.3 0.1 0.5 0.7 0 0.2 0.2 0.4 0.3 0.5 0.1 0.2 0 0.4 0 0.6 0.3 0.5 0.6 0.2 0.6-0.3 0.4 0.2 0.1 1.1 0.6 1.2 0.7 0.2 0.8 0.2 1.5-0.2 0.6 0.1 0.1 1-0.2 1.3zm-137.1-71.7q-0.2 0.2-0.5 0.3-0.2-0.2-0.4-0.3c0.4-0.3 0.6-0.6 0.9 0zm-7.8-19.3l-0.1-0.1q0-0.1 0.1-0.1c0 0.1 0 0.1 0 0.2zm47.5 17.3c-0.1-0.1-0.1-0.5-0.3-0.6-0.6-0.4-0.7 0.6-0.7 1-0.4-0.6-0.5-0.9-0.2-1.6-0.2-0.1-0.8-0.2-1-0.4-0.2-0.2-0.2-0.9-0.2-1.2 0 0-0.9-0.3-0.5-0.4 0.4-0.1 0.5 0.3 0.9 0-0.3-0.2-0.5-0.3-0.3-0.6 0.1-0.2 0.4-0.3 0.6-0.2 0.5 0 1.2 0 1.6 0.2-0.3 0.1-0.6 0.5-0.6 0.8 0.3-0.4 0.4-0.6 0.9-0.7-0.2-0.8-0.4-0.2-1.1-0.4 0.1-0.4 0.4-0.8 0.2-1.1-0.1-0.1-0.4-0.8-0.6-0.5-0.2 0.3-0.6 0-0.9-0.2-0.3-0.1-0.7 0.3-0.9 0.4-0.7 0.1-0.6-0.2-0.8 0.6-0.1 0.2-0.8 0.3-1 0.4-0.4 0.2-0.4 0.2-0.5 0.8 0 0.2-0.4 0.4-0.6 0.6 0.4 0 0.9 0.4 0.9 0.8 0 0.7 0.1 1 0.3 1.6 0.2 0.4 0.6 0.5 0.8 0.9 0.4 0.5 0.5 0.7 1 1-0.4 0.1-0.5 0.1-0.6 0.6-0.1 0.3-0.2 0.6-0.4 0.9-0.1 0.4-0.1 0.6 0 1.1 0 0.4 0.1 0.3 0.5 0.4 0.4 0.1 0.4 0.4 0.7 0.4q0.5 0.2 1 0.4c0.5 0.1 1.2-0.2 1.7-0.2-0.1-0.6-0.2-1.1-0.1-1.7 0.2-0.8-0.2-0.4-0.5-1 0.1 0 0.2 0 0.3 0-0.1-0.1-0.1-0.4-0.2-0.5-0.1-0.1-0.4 0-0.4-0.1-0.3-0.3-0.1-0.5 0-0.8 0 0 1.3 0.2 1.5 0.1 0.1-0.4-0.2-0.5-0.5-0.8zm-132.1-46.9c0.1 0.1 0.2 0.2 0.3 0.2-0.3 0.3-0.7 0.1-1.1 0 0.2-0.2 0.6-0.2 0.8-0.2zm29.4 69.2q0.1 0.1 0.2 0.3c-0.3-0.2-0.6 0.1-0.7 0.1-0.4-0.1-0.6-0.3-0.9-0.5 0.3-0.5 1-0.1 1.4 0.1zm-12.2-27.9c0.3 0.2 0.6 0 0.9-0.1q0 0.1 0 0.2c0.7 0.4 1.9-1.2 2.4-0.7-0.2 0.1-0.5 0.3-0.6 0.6 0.3-0.1 0.6-0.1 0.8 0.1 0.2 0.3 0.3 0.1 0.6 0.3 0.1 0.1 1.2-0.3 1.4-0.4-0.1 0.4 0.2 0.3 0.5 0.4 0.1 0.1 0.2 0.4 0.3 0.5-0.2 0-0.5-0.2-0.6 0.1-0.4-0.4-1.2-0.2-1.5 0.3l-0.1-0.1q0.1-0.1 0.2-0.2c-0.1 0.1-0.2 0.1-0.3 0.2q-0.1-0.1-0.1-0.2c-0.2 0.3-0.7 1-0.8 1.4 0.3 0 0.5-0.6 0.7-0.7 0.1 0.3-0.2 0.7-0.3 1-0.1 0.4-0.3 0.9-0.3 1.3 0.1 0.7 0.4 2.4 1.1 1 0.3-0.7 0.2-1.1 0.1-1.8-0.2-0.8 0.4-1 0.6-1.4 0 0.1 0 0.3 0 0.4 0.2-0.2 0.1-0.6 0.6-0.7-0.4-0.5 0.3-0.4 0.5-0.1 0.3 0.2 0.6 0.1 0.7 0.5 0 0 0 0-0.1 0 0.2 0.3 0.2 0.7 0 0.9-0.1 0-0.4 0.4-0.4 0.5 0.1 0.2 0.7-0.3 0.8-0.3 0.3 0 0.4 0.9 0.4 1.1q0.3-0.3 0.6-0.6c0.1-0.1 0-0.5 0-0.7 0.2-0.4 0.6-0.8 0-1.1 0.4-0.2 0.2 0.4 0.6 0.3-0.1 0.1-0.1 0.1-0.2 0.2 0.1 0.1 0.1 0.1 0.2 0.2 0.2-0.2 0.5 0.1 0.7 0 0.1 0-0.1-0.4 0.3-0.2-0.4-0.3-0.4-1.1-1-1.3-0.5-0.1-1.1-0.1-1.7-0.2-0.1 0-1.2-0.4-1.1-0.5 0-0.2-0.1-0.3-0.1-0.4-0.1-0.1 0.1-0.2 0-0.3-0.1-0.4-0.4-0.2-0.2-0.8-0.8 0.2-0.8-0.2-1.2-0.8-0.2-0.3-0.5 0.1-0.7 0-0.2-0.1-0.5-0.3-0.8-0.3 0.3 0.3 0 0.4-0.2 0.6 0.1-0.1 0.1-0.2 0.1-0.4-0.2 0.1-0.2 0.4-0.4 0.5q0.1-0.1 0.1-0.3c-0.4 0.1-0.2 0.5-0.5 0.6q-0.6 0.3-1.1 0.5-0.5 0.5-0.9 0.9zm6.4 0.8q-0.1-0.1-0.2-0.2c0 0 0.1-0.1 0.2 0q0 0.1 0 0.2zm0 0.1q0.1 0 0.2-0.1 0.1 0.1 0.2 0.1 0 0.1 0 0.1c-0.1 0-0.3 0-0.4-0.1zm21.6-4.7c0 0.2 0.2 0.2 0.4 0.3 0.1 0.1 0.1 0.4 0.1 0.6 0.2-0.1 1.2-0.4 1.4-0.2 0.3 0.4 0.3 0.4 0.3 0.8 0 0.2 0.4 0.3 0.5 0.5 0.1 0.4 0.3 1.3 0.1 1.7-0.2 0.3-0.3 0.3-0.7 0.2-0.4-0.2-0.3-0.2-0.2-0.7-0.7 0-0.9 0.5-1.5 0.6 0-0.3 0.1-0.4 0.4-0.5-0.7-0.4-1.5-0.4-2.2-0.3-0.3 0-0.8 0.1-1-0.2-0.1-0.1 0-0.9 0.1-1 0.7-0.7 1.1-1.2 1.5-2.1 0.2-0.6 0.9-1.5 1.6-1.2q-0.2 0.3-0.3 0.6c-0.4 0.4-0.6 0.4-0.5 0.9zm-7.4 31.5q0.1 0 0.1 0.1c-0.2 0.3-1 0.7-1.1 0.2-0.3-0.7 0.6-0.4 1-0.3zm-9.4-1.3c0.1-0.1 0.5-0.4 0.5-0.5 0-0.4-0.5-0.2-0.6-0.3-0.5-0.2-0.5-0.7-0.9-0.8-0.5-0.1-0.9-0.4-1.4-0.4-0.2 0-0.3-0.2-0.5-0.1-0.2 0-0.5-0.1-0.6-0.2 0.2 0 0.3-0.1 0.4-0.1-0.8-0.8-1.7 1-2.5 0.6 0.4-0.3 0.5-0.8 1-0.9 0.7-0.2 1.2-0.3 1.8-0.2 1.1 0.1 2.1 0.6 3 1.3q0.1-0.1 0.1-0.2c0.3 0.4 0.8 0.7 1.3 0.7 0.1 0 0.2 0.3 0.4 0.3 0.4 0.1 0.5 0.3 0.8 0.5q-0.5 0.1-1 0.3c-0.6-0.1-1.2 0.1-1.8 0zm11-26.1q0.7 0 1.4 0.1c-0.3 0.3-0.4 0.6-0.9 0.4-0.5-0.2-1.1-0.3-0.7-1q0.1 0.2 0.2 0.5zm1.7-2.8c-0.6 0.5-1.8-0.5-2.2-0.9 0.7 0 1.6 0.2 2.2 0.9zm-27.3-31.1c-0.1 0-0.3 0.1-0.4 0.2 0.9 0.3-0.5 1.2-1 1 0.1 0.4-0.4 0.7-0.7 0.6-0.4-0.1-0.6-0.5-0.8-0.8-0.6-0.7-1.3-0.9-2-1.4-0.4-0.3 0.1-0.5 0.3-0.6 0.3-0.1 0.6 0.5 0.9 0.5 0.6 0.1 0.5-0.4 0.5-0.8 0-0.2-0.8-0.4-0.9-0.5 0.1-0.1 0.4-0.6 0.6-0.6 0.4 0 0.6-0.1 1 0.1 0.4 0.2 0.6 0.1 1-0.1 0.5-0.1 0.6 0 1 0.2q-0.2 0.2-0.5 0.4c0.1 0 0.2 0.2 0.3 0.2q-0.5 0.3-1 0.7c0.7 0 0.8-0.1 1.1 0.6 0.1-0.1 0.3-0.1 0.4-0.2q0.1 0.2 0.2 0.5zm13.6 37.5c0 0.4-1.1 0.6-1.4 0.6-0.5 0-0.6 0-0.9 0.4-0.3 0.2-0.5 0.4-0.8 0.2 0-0.2 0.3-0.3 0.5-0.4-0.2-0.2-0.2-0.1-0.2-0.3-0.3 0.3-0.5 0.6-0.7 1q0.3 0.1 0.5 0.2 0 0-0.1 0.1c0.7 0.1 1-0.3 1.6-0.5 0.6-0.2 1.1-0.5 1.6-0.9 0-0.2 0-0.3-0.1-0.4zm0.9-0.2c0.6 0.5 1.7-0.5 1.1-0.7q0.3-0.2 0.5-0.5c-0.3 0.2-1 0.7-1.3 0.6-0.4-0.2-0.9 0.1-1.4 0.2-0.9 1.2 0.7 0 1.1 0.4zm-4-2.6q-0.1-0.1-0.2-0.1c0.2-0.2 0.4 0.1 0.6 0 0.2-0.1 0.4-0.1 0.5 0.1q0.1 0 0.1-0.1c0.1 0.2 0 0.3-0.1 0.4h-0.1q0.1-0.1 0.1-0.1c-0.2 0.1-0.6-0.1-0.9-0.2zm-27.2-25.5c-0.1 0-0.2-0.1-0.3-0.1 0.1-0.1 0.2-0.2 0.3-0.2-0.4-0.1-0.7 0.4-1 0.4-0.5 0.1-0.7 0.1-1.2-0.1 0.1-0.4 0.7-0.5 1.1-0.6-0.7-0.3-0.9-0.3-1.5-0.1q-0.7 0.3-1.3 0.5c-0.4 0.1-0.9 0.2-1.3 0.3-0.3 0.1-1.2 0.1-0.5 0.6 0 0 0.1-0.1 0.2-0.1q-0.1-0.1-0.1-0.2c0.3-0.1 1-0.1 1.3 0 0-0.1 0-0.1 0-0.1q0.7-0.2 1.4 0.2c-0.2 0.4-0.9 0.1-1.2 0.2 0.1 0.1 0.3 0.2 0.4 0.4-0.2 0-0.4 0.1-0.5 0.2 0.3 0.4-0.2 0.5-0.5 0.5 0.3 0.3 0.7 0.1 1.1 0.2 0.2 0.1 0.5-0.5 0.7-0.6 0.4-0.2 1-0.1 0.5 0.3-0.2 0.1-0.2 0.3-0.3 0.3-0.1 0.1-0.3 0.1-0.4 0.2 0.5 0.4 1-0.8 1.6-0.6q-0.1-0.4-0.5-0.4c0.5-0.6 1.5 0.2 1.8-0.3-0.1 0-0.2 0-0.3 0 0-0.4 0.2-0.2 0.3-0.4q0.1-0.2 0.2-0.5zm6.8 5.1c-0.6-0.2-1.4-0.4-1.9 0-0.2 0.2-0.3 0.4-0.5 0.6-0.2 0.3-0.4 0.4-0.7 0.4-0.4 0-0.9 0-1.1-0.4 0-0.1-0.6 0-0.8-0.3 0-0.1-0.6-0.3-0.6-0.3-0.2 0.2 0.5 0.5 0.6 0.4-0.2 0.5 0.8 0.8 0.2 1-0.2 0-0.3-0.1-0.5 0.1-0.1 0.2-0.1 0.3-0.3 0.4q0 0 0.1 0.1c-0.2 0.1-0.4 0-0.7 0q0 0 0 0.1c-0.2 0-0.4-0.1-0.7-0.1 0.4 0.4 1.2 0.5 1.7 0.6 0.3 0.1 1.6-0.1 1.4-0.5 0.4-0.4 0.6-0.3 1.1-0.5 0.2-0.1 0.5-0.4 0.7-0.6q-0.1 0-0.2 0c0.3-0.2 0.4-0.4 0.7-0.5 0.3-0.1 0.5 0.1 0.7-0.2-0.2 0.1-0.2 0.1-0.4 0q0.3-0.1 0.6-0.1c-0.2 0-0.4 0-0.5-0.1 0.1 0 0.2 0 0.4 0-0.5-0.2-1 0.2-1.5 0.5 0.2-0.6 1.8-1 1.9-0.3 0.1-0.1 0.2-0.2 0.3-0.3zm8.7 13.6c0.1-0.3 0.1-0.2 0.2-0.3q0 0.2 0 0.3c0.1-0.1 0.1-0.1 0.1-0.2 0.2 0.1 0.2 0.5 0.1 0.7 0.1-0.1 0.2-0.3 0.4-0.2 0.1 0-0.1 0.4-0.1 0.5 0.1-0.1 0.2-0.1 0.3-0.1-0.3 0.2-0.4 0.6-0.3 0.9 0.1 0.4 0.3 0 0.3-0.2 0.1 0 0.1 0 0.2 0-0.1-0.3 0.1-0.6-0.1-0.8-0.2-0.2-0.3-0.6-0.4-0.9-0.2-0.4-1-2.1-0.6-2.3h-0.1c-0.1 0.1-0.1 0.1-0.3 0.1q0.1-0.2 0.3-0.3c0-0.1-0.1-0.2-0.1-0.2-0.3 0.5-0.3 0.6 0.1 0.9-0.3-0.2-0.8-0.4-1 0-0.2 0.8 0 0.6 0.5 0.8-0.6 0.1 0.2 0.9 0.3 1.2q0.1 0.1 0.2 0.1zm-53.3-9.9q0 0 0 0.1c-0.2 0-0.4 0-0.5 0.2-0.3-0.2-0.7-0.2-0.9-0.6 0.5 0.1 0.8-0.3 1.3-0.1-0.1 0.2 0.1 0.2 0.1 0.4zm31.3-17.2c-0.1-0.4 0.3-0.7 0.5-1 0.3-0.3-0.2-0.6 0.5-0.7-0.4-0.3 0.2-0.9 0.5-1.2 0.1-0.1-0.5-0.9-0.6-1.1q1.2-0.2 2.3-0.4c0.7 0 1.3 0.8 2 0.6 0 0.1 0 0.2 0 0.3 0.5-0.6 1.2-0.3 1.8-0.1 0.3 0.1 0.5 0.4 0.8 0.6 0.4 0.2 0.4 0.4 0.1 0.7-0.5 0.5-1.5 0.7-2.2 0.9-0.3 0.2-0.4 0.1-0.5 0.5-0.1 0.4-0.5 0.6-0.8 0.4l-0.2 1.1c-0.3 0.1-0.5 0.3-0.8 0.3 0 0 0-0.2-0.1-0.1q-0.2 0.1-0.4 0.2c-0.7 0.4-0.6 0.4-1.2-0.3-0.4-0.4-0.8-0.5-1.3-0.8-0.1 0.1-0.2 0.1-0.4 0.1zm2.6-6.8c-0.5-0.6 0-0.8 0.6-0.9 0.4 0 1-0.7 1.2-1 0.5-0.3 0.7-0.6 1.2-0.6 0.2-0.1 0.6-0.2 0.7-0.1 0.3 0.1 0.6 0.3 0.8 0-0.1 0-0.1-0.1-0.2-0.1 0.5-0.3 0.7-0.1 1.3 0.2-0.4 0.2-1.1 0.6-0.3 0.7-0.1 0-0.3 0-0.4 0.1 0.6 0.3-0.3 1-0.6 1.1-0.6 0.1-1.1-0.5-0.5-0.8-0.2-0.1-0.5-0.2-0.5 0 0 0.5-0.3 0.3-0.5 0.4 0.2 0.1 0.3 0.3 0.1 0.5-0.3 0.3-0.4-0.3-0.6-0.2-0.3 0.1 0.2 0.5 0 0.7-0.1 0.2-0.4 0.2-0.6 0.3 0-0.5-0.3-0.8-0.5-0.5-0.1 0.1 0.1 0.4-0.3 0.3q-0.4 0-0.9-0.1zm6.5-3.2q-0.3-0.2-0.7-0.5c0.7-0.2 0.7-0.2 1.2 0.3q-0.2 0.1-0.5 0.2zm-30.2 29.1q0.3 0.1 0.5 0.2 0 0.1-0.1 0.2-0.1 0-0.1-0.1c-0.1 0.2-0.5 0.4-0.7 0.3 0-0.3 0.2-0.5 0.4-0.6zm16.6 7.3q0.2 0.1 0.4 0.3c-0.5 0.5-1.7-1.6-1.6-2.2 0-0.1 1.1-0.2 1 0.2 0 0.6 0.1 1.1 0.2 1.7zm-16.4-6.2q0.1 0 0.2 0-0.1 0.3-0.4 0.2c0 0.3-0.2 0.4-0.4 0.4-0.3 0.1-0.5 0.4-0.7 0.5-0.7 0-0.6-1.5 0.1-1.1-0.1-0.6 1.3-0.5 1.2 0zm22.1 10.8c-1.3-0.7-2.3-1.4-3.3-2.6 0.6-0.2 0.8 0.1 1.4 0.3 0.7 0.2 0.9 0.1 1.3 0.8 0.1 0.3 0.2 0.4 0.4 0.5 0.2 0.1 0.5 0.1 0.6 0.3 0.4 0.7 0.5 1-0.4 0.7zm137.1 57.1c0.1 0.9 0.4 1.6 0.1 2.4q-0.2-0.2-0.4-0.4c0.1 1.2 0 1.6-0.3 2.7q-0.7 2.4-1.4 4.7-0.2 0.7-0.4 1.3c0 0.1-1 0.4-1.2 0.4-0.2 0.1-1.1-0.2-1.2-0.4-0.1-0.6-0.1-1.2-0.3-1.7-0.2-0.6-0.3-1.1-0.1-1.7 0.2-0.5 0.8-1 0.8-1.6 0.1-0.5-0.2-1.2-0.4-1.7 0-0.3 0.2-1.3 0.5-1.4 0.6-0.1 1-0.3 1.5-0.5 0.5-0.3 0.7-0.7 1.1-1.2 0.5-0.5 0.7-0.5 0.7-1.3 0.1-1 0.7 0 0.9 0.3zm55.4-25.4c0.1-0.3-0.2-0.4-0.1-0.6q0.1-0.8 0.2-1.5c0-0.2 0.4-0.3 0.5-0.3 0.6 0.2 0.3 0.5 0.9 0.2 0.2 0.4-0.2 0.5-0.1 0.8 0.1 0.5 0.3 0.3 0.1 0.9 0 0.1 0 0.4-0.1 0.5-0.1 0.1-0.4-0.1-0.4 0.1 0.1 0.5-0.3 0.3 0 0.9 0.1 0.3 0 0.7 0.4 0.7 0.1 0 0.2-0.3 0.4-0.2 0.1 0 0.3 0 0.4 0.1 0.2 0.1 0.3 0.3 0.5 0.3 0.1 0.1 0.1-0.3 0.3-0.1 0.3 0.3 0.1 0.5-0.3 0.3 0 0.5 0.5 0.4 0.3 0.9-0.2-0.1-0.7-0.3-0.7-0.5 0-0.5-0.1-0.4-0.5-0.6q0 0.3-0.1 0.6c-0.1-0.1-0.2-0.3-0.4-0.4-0.4-0.2-0.3 0-0.6 0-0.4-0.1-0.8-0.5-0.3-0.8-0.2-0.1-0.6-0.1-0.7-0.4 0-0.4-0.2-0.9-0.1-1.2q0.2 0.1 0.4 0.3zm0.4-5.4c-0.3-0.4-0.8-0.8-0.6-1.4 0.1-0.6 0.5-1.2 0.9-1.4 0.8-0.4 0.4 0.7 0.3 1.2-0.1 0.6-0.3 1.1-0.6 1.6zm-1 9.6c0 0.2 0.1 0.7 0.1 0.7-0.2 0.1-0.7 0.4-0.7 0.6-0.1 0.7-0.7 0.9-1.3 1.3 0.3-0.6 0.6-1 1-1.4 0.5-0.4 0.6-0.8 0.7-1.4 0.1 0 0.2 0.1 0.2 0.2zm5.3 2.2q-0.1 0-0.2 0.1c0.1 0 0.1 0.1 0.2 0.1 0 0.1 0 0.2 0 0.3 0.4 0 0.1 0.9 0 1.2q-0.1-0.1-0.1-0.1 0 0.3 0 0.5c-0.2-0.3-0.1-0.6-0.3-0.9-0.5 0.3-0.2 0.6-0.2 1 0.2 0.5-0.4 0.7-0.3 0.1-0.2 0.5-0.8 0-1-0.3-0.1-0.4 0.4-1.3-0.4-1.1 0 0.1 0 0.2 0 0.3-0.2-0.1-0.2 0-0.2-0.3-0.1 0.1-0.1 0.1-0.2 0.3-0.2-0.8-0.5 0.3-0.7 0.4-0.4-0.5 0.3-0.9 0.7-1 0.2-0.1 0-0.6 0.4-0.6 0.4 0 0.4 0.4 0.2 0.6 0.3-0.1 0.5-0.7 0.8-0.4 0-0.3 0.1-0.5 0.4-0.4 0.1-0.1 0-0.1 0.3 0q-0.1-0.4-0.1-0.7c0.2 0 0.4 0.2 0.4 0.5 0.3-0.1 0.3 0.1 0.3 0.4zm-5.8 16c0-0.6 1.2-0.2 1.3 0.2 0.4 0.7-0.9 0-1.3-0.2zm-1-1.3c0.5-0.2 1.8 0.4 0.6 0.6-0.8 0.1-1.3 0.2-2.1-0.1 0.2-0.3 0.2-0.5 0.5-0.5 0.2 0 0.7 0.2 0.8 0.3 0.2 0 0.4-0.1 0.2-0.3zm2.6 0.7c-0.2-0.2-1.3-0.1-0.9-0.5 0.4-0.4 1.2 0.2 1.5 0 0.2-0.1 0.4 0.2 0.5 0.1 0.3-0.3 0.3-0.3 0.7-0.3 0.6 0.1 0.9-0.1 1.5 0.1-0.4 0.4-1.2 0.1-1.7 0.1-0.2 0-0.4 0.4-0.8 0.3-0.1 0-0.2 0.2-0.3 0.2-0.2 0-0.2-0.2-0.5 0zm1.4-3.6c0-0.4 0.3-0.5 0.4-0.1-0.2 0-0.3 0.1-0.2 0.3 0.2 0.3 0 0.4-0.2 0.6q-0.2-0.2-0.4-0.4c0-0.2 0.2-0.9 0.4-0.4zm-10.8-5.7q0.3-0.1 0.5-0.3c0.1 0.6 0.9 0.5 1.3 0.6-0.4-0.4-0.3-0.4 0-0.9 0.3-0.4 0.7-0.4 1.1-0.6 0.4-0.1 0.5-0.5 0.8-0.8 0.3-0.6 0.4-0.6 1-0.7 0.4-0.1 0.2-0.4 0.5-0.8 0.1-0.2 0.7-1 0.9-1.1 0.3 0 0.9 0.6 1 0.8 0.1 0.1 0.3 0.4 0.5 0.5 0.2 0 0.3 0 0.4 0.3q-0.4 0.1-0.8 0.2 0.2 0.2 0.3 0.5c-0.2 0-0.9 0-0.9 0.3 0 0.8 0.2 0.7 0.4 1.4 0.1 0.1-0.1 0.3-0.1 0.4 0.1 0.1 0.4 0.3 0.5 0.4 0.6 0.5 0.3 0.6-0.3 0.5-0.2-0.1-0.5 0.5-0.4 0.8 0 0.7 0 0.7-0.5 1.1-0.3 0.3-0.5 0.3-0.5 0.8q0 0.8 0 1.6c-0.3 0-0.3-0.2-0.2-0.4q-0.5 0.2-1.1 0.5c0-0.2-0.1-0.6-0.2-0.6-0.2-0.1-0.4 0-0.5-0.1-0.7-0.4-0.8-0.2-1.5 0.2q0-0.3-0.1-0.7c-0.2 0.2-1.1 0.5-1.1 0.1-0.1-0.6 0-1.3-0.4-1.7-0.1 0.2-0.1 0.1-0.3 0.3 0-0.4-0.1-0.2-0.1-0.4q-0.1-0.2-0.2-0.4c0-0.2 0.2-0.2 0.2-0.3-0.1-0.2-0.3-0.4-0.3-0.5q0.1-0.5 0.1-1zm11.4 10.5c0.3-0.3-0.1-0.5 0.2-0.7 0.2-0.3 0.6-0.4 0.9-0.6 0.1 0 0.1-0.2 0.2-0.2 0.1-0.1 0.3-0.1 0.5-0.1 0.3-0.1 0.7-0.1 1.1-0.2-0.2 0.5-1.1 0.8-1.5 1-0.3 0.1-0.4 0.3-0.6 0.5-0.2 0.3-0.5 0.2-0.8 0.3zm-155.7-25.1c-0.2-0.5 1.3 0.1 1.6-0.2-0.3-0.5-0.3-0.7-0.8-1 0.5-0.2 0.7-0.1 1.2 0 0.1 0 0.5-0.1 0.6-0.2 0.2-0.1 0.5 0.1 0.7 0.2 0.2 0.1 0.2-0.1 0.4 0.2 0.2 0.3 0.2 0.3 0.6 0.4 0.2 0.1 0.5 0.3 0.4 0.5-0.2 0.4-0.1 0.1-0.5 0.1-0.5 0-0.8 0.1-1.2 0.1-0.1 0-0.1-0.2-0.4-0.1-0.1 0.1-0.1 0.7-0.3 0.7-0.3 0.1-0.2-0.4-0.4-0.5-0.1-0.1-0.4 0-0.6 0-0.6-0.1-0.8 0.2-1.3-0.2zm41-57.5q-1.5 0.9-3.1 1.9c-0.8 0.5-1.9 0.6-2.8 0.8q-1 0.3-1.9 0.5c-0.4 0.1-0.6 0.4-0.9 0.7-0.3 0.4-0.7 1.2-1.1 1.4-0.4 0.3-1 0.4-1.4 0.5q-1 0.3-2 0.7c-0.5 0.1-0.5 0.2-0.7 0.7q-0.6 1.5-1.1 3.1-0.6 2-1.3 3.9c0 0.1-0.9 0.1-1.1 0q-1-0.3-2-0.7c-0.3-0.1-0.9-0.2-1.1-0.5q-0.7-1-1.3-2c-0.7-1.1-1.5-2.1-1.9-3.4q-0.5-1.2-0.9-2.4c-0.2-0.5 0.1-1.4 0.2-2 0-0.1 0-0.6 0.1-0.7q0.6-0.2 1.2-0.4c0.1-0.1 0.6-0.2 0.6-0.4q0.1-0.6 0.2-1.2-0.9 0.2-1.7 0.5c-0.8 0.2-0.7 0.2-1.3-0.4-0.4-0.5-0.2-0.9 0-1.5 0.2-0.7-0.4-1-0.8-1.4-0.4-0.5-0.1-0.9 0.1-1.5 0.2-0.6 0.1-0.6-0.2-1.3-0.5-1.1-0.9-2.2-1.6-3.2-0.2-0.2-0.8-1.3-1-1.3q-0.9-0.1-1.7-0.3c-1.1-0.2-2-0.4-3.1-0.2q-0.9 0.1-1.9 0.2c-0.3 0-1-0.6-1.3-0.8q-0.8-0.5-1.6-0.9c-0.4-0.3-0.7-1-1-1.4-0.1-0.1-0.5-0.5-0.5-0.7 0.1-0.2 0.1-0.8 0.3-0.8q1.4-0.4 2.7-0.8c0.7-0.2 1.3-0.4 2.1-0.4 0.5 0 0.5 0.1 0.7-0.4q0.3-0.7 0.5-1.4c-0.8 0-1.5 0.1-2-0.6q2.3-1.2 4.7-2.4 0.9-0.5 1.9-1c0.4-0.2 1.2-0.2 1.7-0.2q1.7-0.3 3.3-0.5c0.5 0 1.3-0.3 1.8-0.2 1.6 0.3 3 0.8 4.6 1.4-0.6-1-1.5-1.4-2.4-1.9q1.4-0.7 2.8-1.3c0.6-0.3 1.4 0 2.1 0.2q0.8 0.1 1.6 0.2c0.4 0.1 0.5-0.6 0.8-0.8 0.2-0.1 0.7-0.1 0.9-0.1q1.1-0.1 2.1-0.2c1.9-0.1 3.7 0.2 5.6 0.5 1.7 0.2 3.1 0.9 4.8 1.6q-1.3 0.5-2.5 0.9c0.5 0.5 1.1 0.3 1.7 0.4 0.7 0-0.3 1.5-0.4 1.7 0.5-0.2 1.6-1 2.1-0.9q0.7 0.1 1.4 0.2c0.4 0.1 0.5-0.3 0.8-0.6 0.4-0.5 1.5-0.4 2-0.3 0.8 0.1 1.6 0.6 2.3 0.9q-1 0.6-2 1.2c-0.5 0.3-1.2 0.3-1.7 0.4q0.2 0.2 0.5 0.4c-0.5 0.6-1 1-1.5 1.4-0.5 0.3-1.2 0.5-1.5 1.1-0.3 0.5-1.1 1.3-0.8 1.9 0.3 0.8 0.7 0.9 1.4 1.4q-1 0.9-1.9 1.9 0.6 0.4 1.3 0.9c0.3 0.2 0.3 0.9 0.4 1.3 0 0.2 0.3 1.3 0.2 1.4q-0.7 0.7-1.3 1.4c-0.7 0.7-0.9 1.9-1.2 2.9-0.1 0.3 0.3 1.2 0.4 1.6 0.1 0.7 0.1 0.7-0.4 1.3zm4.3 9q-0.3 0.1-0.6 0.1c-0.3 0.1-0.2 0.2-0.4 0.3-0.4 0.2-0.7 0.2-1.1 0.1-0.2 0-0.5 0-0.7-0.1-0.1-0.1-0.2-0.5-0.4-0.4q-0.7 0.1-1.4 0.1c-0.2-0.5 0.5-0.3 0.7-0.8q-0.1 0-0.2 0 0-0.1 0-0.2c-0.2 0-0.3-0.1-0.1-0.3-0.4 0-1.4 0.2-1.5-0.2 0.6 0 1.2-0.3 1.8-0.3q0-0.1 0-0.1c-0.2 0-0.4 0-0.6-0.1q0.3-0.2 0.6-0.3c-0.2-0.1-0.8-0.3-1-0.2-0.5 0.2-0.7 0.3-1.2 0.1 0.2-0.1 0.2-0.2 0.4-0.2q0-0.1 0-0.2c0.1 0.1 0.4 0.2 0.5 0 0.1-0.1-0.5-0.1-0.2-0.5 0.3-0.3 1.1 0.6 1-0.2-0.3 0-0.5 0-0.6-0.3 0.6 0 0.6 0.1 1.1 0.5 0 0.1 0.4 0.1 0.4 0.3 0 0.2-0.2 0.3-0.3 0.3q0.2 0.4 0.4 0.7c0.1-0.2 0.2-0.5 0.3-0.7 0.2-0.3 0.6 0.1 0.3-0.6 0.3 0 0.5 0.3 0.7 0.6-0.1-0.3 0.1-0.7 0.4-0.7 0.4 0.1 0.4 0.3 0.7 0.7q-0.1-0.4-0.1-0.7c0.6 0.3 0.7 0 1.4 0-0.4-0.9 1.7-0.1 1.2 0.6 0.4-0.1 0.6 0.1 0.9 0.3 0.2 0.1 0 0.5 0.2 0.7-0.2 0.2-0.4 0.6-0.7 0.4 0 0.5-0.3 0.8-0.7 0.7-0.3-0.1-0.9 0.5-1.2 0.6zm99.4 48.6c-0.2 0-0.3 0-0.4-0.1-0.4-0.2-0.3-0.3-0.3-0.8 0.5-0.3 0.8-1 1.5-0.6q0.1-0.1 0.1-0.2c0.2 0 0.3 0.3 0.2 0.5-0.2 0-0.3 0.4-0.3 0.7-0.1 0.3-0.5 0.3-0.6 0.3-0.2 0.1 0 0.3-0.2 0.2zm-3.9 20.7c0 0.2 0 0.3 0 0.5-0.8-0.7-1.4-1.4-2.1-2.2-0.3-0.3-0.7-0.6-0.9-1.1-0.2-0.5-0.4-1.4-0.8-1.8-0.2-0.2-0.4-0.1-0.5-0.3q-0.1-0.5-0.3-1.1c-0.1-0.6-0.9-0.4-0.9-1.1 0-0.6-0.7-0.7-1-1-0.2-0.1-1-1.2-0.8-1.4 0.1-0.2 1.1 0.2 1.3 0.3 0.7 0 0.6 0.3 1 0.8 0.2 0.4 0.8 0.7 1.1 1.1 0.4 0.3 0.9 0.5 1.2 0.9 0.2 0.3 0.4 0.2 0.7 0.3 0.4 0.1 0.1 0.1 0.4 0.3 0.2 0.3 0.4 0.1 0.4 0.5 0 0.2 0.5 0.2 0.5 0.5 0.1 0.3-0.2 0.4-0.1 0.7 0 0.2 0.4 0.3 0.6 0.3 0.1 0.1 0.1 0.6 0.2 0.8 0 0.3 0.3 0.3 0.1 0.6 0.5-0.5 1.2 0.1 1 0.7-0.2 0.6-0.1 1.5-0.2 2.1-0.3-0.6-0.5 0.1-0.9-0.4zm0-2.3q0.1-0.1 0.1-0.1-0.1 0-0.1 0.1zm2.4 0.4c0-0.1-0.2-1 0.2-0.6 0.4 0.2 0.3 0.8-0.2 0.6zm5.5 4.8q-0.5-0.2-1-0.4c-0.5 0.1-0.7 0-1.2-0.1-0.1 0-0.1 0.2-0.2 0.1q-0.3 0-0.5 0c-0.2 0-0.4-0.2-0.6-0.2-0.3-0.1-0.5-0.3-0.8-0.3-0.2 0-0.5 0.2-0.7 0.1-0.5-0.1-1-0.4-1.4-0.5q0-0.1 0-0.2c-0.4-0.1-1.1-0.1-0.6-0.7 0.2-0.2 0.2-0.3 0.4-0.2 0.3 0 0.5 0.2 0.6-0.1 0.2 0.1 1 0.3 1 0.4 0.4 0.5 0.8 0.4 1.4 0.5 0.1 0 0.3 0.1 0.4-0.1 0.1-0.3 0.2-0.4 0.4-0.1 0.2 0.2 0.9 0.3 1.2 0.1-0.1 0.6 0.4 0.9 0.8 0.8 0.9-0.2 0.4 0.5 0.8 0.9zm-7-6.1q0-0.1 0-0.2c0.5 0 0.2 1 0.9 0.9q-0.3 0.3-0.1 0.5c-0.2 0-0.3-0.1-0.5-0.2-0.1-0.1-0.1-0.2-0.2-0.4-0.1 0-0.1-0.3-0.2-0.3-0.2 0.1-0.2 0.1-0.4-0.1 0.2-0.2 0.3-0.5 0.5-0.2z"/>
					</g>
				</g>
			</g>
			<text id="World
" style="transform: matrix(2,0,0,2,122.836,140.489)" >
				<tspan x="0" y="0" class="t12">World
</tspan>
			</text>
			<text id="NEWS
" style="transform: matrix(2,0,0,2,190.834,193.244)" >
				<tspan x="0" y="0" class="t13">NEWS
</tspan>
			</text>
			<g id="&lt;Group&gt;">
				<path id="&lt;Path&gt;" class="s0" d="m356.6 138h-64.4l5.6-28.4h64.4z"/>
				<path id="&lt;Path&gt;" class="s0" d="m363.3 104.8h-64.4l1-5.6h64.4z"/>
			</g>
			<path id="&lt;Path&gt;" class="s3" d="m172.4 191c-5.4 1.3-11 2-16.8 2-39.1 0-70.8-31.7-70.8-70.8 0-39 31.7-70.7 70.8-70.7 25.5 0 47.8 13.5 60.3 33.7"/>
		</g>
		<g id="&lt;Group&gt;">
			<g id="&lt;Group&gt;">
				<g id="&lt;Group&gt;">
					<g id="&lt;Group&gt;">
						<path id="&lt;Path&gt;" class="s9" d="m151.7 365.5l-29.5 62.7h265.1l29.5-62.7z"/>
						<g id="&lt;Group&gt;">
							<g id="&lt;Group&gt;">
								<path id="&lt;Path&gt;" class="s9" d="m71.9 365.5h-10.1l-29.5 62.7h10.1z"/>
								<path id="&lt;Path&gt;" class="s9" d="m79.1 365.5l-29.5 62.7h17.9l29.5-62.7z"/>
							</g>
							<path id="&lt;Path&gt;" class="s9" d="m109 365.5l-29.5 62.7h23.6l29.5-62.7z"/>
						</g>
					</g>
				</g>
				<text id="NEWS
" style="transform: matrix(2,0,0,2,151.76,414.375)" >
					<tspan x="0" y="0" class="t14">NEWS
</tspan>
				</text>
			</g>
			<g id="&lt;Group&gt;">
				<path id="&lt;Path&gt;" class="s0" d="m289.5 428.2h97.8l29.5-62.7h-97.8z"/>
				<text id="TV
" style="transform: matrix(2,0,0,2,320.997,414.375)" >
					<tspan x="0" y="0" class="t15">TV
</tspan>
				</text>
			</g>
		</g>
		<g id="&lt;Group&gt;">
			<path id="&lt;Path&gt;" class="s0" d="m57.8-158.5h92.5v9h-92.5z"/>
			<path id="&lt;Path&gt;" class="s0" d="m64.9-172.9h85.4v8.3h-85.4z"/>
			<path id="&lt;Path&gt;" class="s0" d="m73.2-186.5h77.1v7.5h-77.1z"/>
			<path id="&lt;Path&gt;" class="s0" d="m340.5-162.2h50.4v-9h-50.4z"/>
			<path id="&lt;Path&gt;" class="s0" d="m340.5-147.5h43.3v-8.3h-43.3z"/>
			<path id="&lt;Path&gt;" class="s0" d="m340.5-133.6h35v-7.5h-35z"/>
			<g id="&lt;Group&gt;">
				<path id="&lt;Path&gt;" class="s9" d="m179.3-186.5l-5.8 33.3-12.6-33.3h-12.2l-7.4 43.1h-91v9.8h89.3 10.7 1.7l5.8-33.4 12.7 33.4h12l9.2-52.9z"/>
				<path id="&lt;Path&gt;" class="s9" d="m190.6-133.6h35.5l1.7-9.8h-23l2.2-12.7h19.4l1.7-9.4h-19.5l1.9-11.2h23.1l1.7-9.8h-35.5z"/>
				<path id="&lt;Path&gt;" class="s9" d="m285.6-186.5l-11.1 33-1.9-33h-10.6l-12.1 32.8-0.8-32.8h-12.1l2.7 52.9h12.9l11.4-30 2.1 30h12.9l19.2-52.9z"/>
				<path id="&lt;Path&gt;" class="s9" d="m398.7-177.5v-9.8h-76.5q-5.5 0.1-10.1 1.9-5 1.9-7.8 5.4-2.8 3.4-3 7.9-0.6 9.7 11.9 15.3l6 2.5q5.2 2.2 4.4 6.3-0.5 2.6-2.6 4-2.1 1.5-5.2 1.5-4.2 0-6-2.1-1.8-2.1-1.5-6.2h-12.5q-0.2 8 5.1 12.9 2.6 2.4 6.3 3.7 3.6 1.3 7.9 1.3 5.9 0.1 10.6-1.8 4.7-1.9 7.3-5.3 2.7-3.5 3-8.1 0.5-8.8-8.2-14-2.7-1.7-8.8-4-6.1-2.3-5.4-5.9 0.4-2.6 2.8-4.2 2.1-1.2 4.7-1.4v0.1z"/>
			</g>
		</g>
		<g id="&lt;Group&gt;">
			<g id="&lt;Group&gt;">
				<path id="&lt;Path&gt;" class="s9" d="m-346.3 474.8l93.6-147.5 93.6 147.5z"/>
				<path id="&lt;Path&gt;" class="s0" d="m-327.7 465.1l93.6-147.5 93.6 147.5z"/>
			</g>
			<g id="&lt;Group&gt;">
				<text id="NEWS
" style="transform: matrix(2,0,0,2,-260.037,457.637)" >
					<tspan x="0" y="0" class="t16">NEWS
</tspan>
				</text>
				<text id="NEWS
" style="transform: matrix(2,0,0,2,-260.037,443.236)" >
					<tspan x="0" y="0" class="t17">NEWS
</tspan>
				</text>
				<text id="NEWS
" style="transform: matrix(2,0,0,2,-260.037,426.822)" >
					<tspan x="0" y="0" class="t18">NEWS
</tspan>
				</text>
				<text id="NEWS
" style="transform: matrix(2,0,0,2,-260.037,413.449)" >
					<tspan x="0" y="0" class="t19">NEWS
</tspan>
				</text>
			</g>
		</g>
	</g>
</svg>